<svg xmlns="http://www.w3.org/2000/svg" xmlns:xlink="http://www.w3.org/1999/xlink" width="1551.194" height="887.249" viewBox="0 0 1551.194 887.249">
  <defs>
    <linearGradient id="linear-gradient" x1="0.5" x2="0.5" y2="1" gradientUnits="objectBoundingBox">
      <stop offset="0" stop-color="#fef2e5"/>
      <stop offset="0.234" stop-color="#fff7ee"/>
      <stop offset="0.351" stop-color="#eedfd0"/>
      <stop offset="0.632" stop-color="#f8e2cb"/>
      <stop offset="0.887" stop-color="#e2cbb1"/>
      <stop offset="1" stop-color="#e2cbb1"/>
    </linearGradient>
    <clipPath id="clip-path">
      <rect id="Rectangle_4" data-name="Rectangle 4" width="887.249" height="1551.194" fill="url(#linear-gradient)"/>
    </clipPath>
  </defs>
  <g id="Groupe_10" data-name="Groupe 10" transform="translate(1551.194) rotate(90)" opacity="0.14">
    <g id="Groupe_9" data-name="Groupe 9" clip-path="url(#clip-path)">
      <path id="Tracé_307" data-name="Tracé 307" d="M815.736,420.379c-3.708,4.226-7.452,8.4-11.245,12.495-1.976,11.342-3.383,22.461-4.869,33.463s-3.029,21.875-4.683,32.591-3.4,21.235-5.276,31.552-3.839,20.421-5.891,30.331-4.154,19.6-6.346,29.144a78.824,78.824,0,0,1-11.807,25.774A84.161,84.161,0,0,1,744.5,636.775a92.477,92.477,0,0,1-29.507,13.358,122.686,122.686,0,0,1-36.108,3.668,210.045,210.045,0,0,1-40.431-5.908,157.449,157.449,0,0,1-31.821-11.569,123.62,123.62,0,0,1-23.959-15.551,159.279,159.279,0,0,1-18.368-18.183c-5.548-6.328-10.717-12.854-16.116-19.219a150.091,150.091,0,0,0-17.695-18.153c-7.358-4.637-17.247-14.2-27.1-19.96s-20.077-7.608-29.285,3.339c-8.139,8.809-13.492,17.276-16.912,25.44a63.921,63.921,0,0,0-4.916,23.794,103.436,103.436,0,0,0,2.424,22.586c1.468,7.317,3.364,14.4,4.543,21.3s1.587,13.658-.058,20.337-5.445,13.309-12.778,19.992c-4.712,4.293-12.822,6.989-23.054,8.818s-22.395,2.725-35.21,3.339c-6.406.308-12.864.506-19.284.687s-12.8.327-19,.538c-12.4.422-24.442,1.409-35.145,3.769-10.586,1.5-21.054,3.086-31.345,4.859s-20.469,3.778-30.454,6.037q-9.988,2.261-19.585,4.9t-18.884,5.781q-9.211,3.153-18.031,6.755T179.251,735.1A173.454,173.454,0,0,0,148,754.024a146.456,146.456,0,0,0-25.585,25.328A139.683,139.683,0,0,0,105.178,811.3,135.824,135.824,0,0,0,97,847.381a212.51,212.51,0,0,0,1.683,52.482A171.786,171.786,0,0,0,110.1,939.837a146.546,146.546,0,0,0,40.456,55.213,204.019,204.019,0,0,0,26.369,18.879c9.451,5.747,19.627,11.2,30.576,16.671q8.212,4.1,17.151,8.053,8.934,3.974,18.595,7.748c6.482,2.524,13.171,4.969,20.039,7.207s13.9,4.2,21.1,5.891,14.535,3.179,21.985,4.508c4.179.745,8.4,1.441,12.653,2.113H348.97q-6.6-1-13.148-1.951c-7.757-1.133-15.41-2.307-22.937-3.6s-14.946-2.733-22.236-4.357-14.413-3.5-21.359-5.676-13.72-4.611-20.312-7.2q-9.841-3.87-18.97-8.084-9.112-4.193-17.492-8.562c-11.142-5.844-21.453-11.629-30.988-17.673a213.216,213.216,0,0,1-26.476-19.622,152.025,152.025,0,0,1-22.234-24.1,146.541,146.541,0,0,1-17.355-30.9A162.71,162.71,0,0,1,104.89,895.77a220.742,220.742,0,0,1-1.226-49.983,148.094,148.094,0,0,1,7.975-33.263,139.579,139.579,0,0,1,16.015-30.349,144.481,144.481,0,0,1,24.268-24.653,172.188,172.188,0,0,1,30-18.916q8.084-4.048,16.669-7.7t17.63-6.854c6.029-2.152,12.206-4.1,18.513-5.9s12.743-3.427,19.334-4.937q14.8-3.389,30.19-5.906c10.236-1.684,20.679-3.138,31.265-4.454a314,314,0,0,1,34.664-1.463c6,.015,12.145.011,18.312-.049s12.362-.162,18.525-.383c12.337-.446,24.165-1.146,34.509-2.57s19.025-3.5,25.051-6.746c10.591-5.7,17.086-11.3,20.815-16.964a27.762,27.762,0,0,0,4.5-17.354c-.293-5.932-1.871-12.058-3.572-18.435a148.223,148.223,0,0,1-4.351-19.98,62.9,62.9,0,0,1,.816-21.754,67.919,67.919,0,0,1,10.583-23.691c6.094-5.844,13.207-18.323,23.082-12.385a107.107,107.107,0,0,1,27.953,18.767c7.885,7.157,14.883,14.942,22.1,22.706a259.686,259.686,0,0,0,23.284,22.79A151.777,151.777,0,0,0,602.1,645.293a194.147,194.147,0,0,0,41.134,14.765,237.93,237.93,0,0,0,24.934,4.62,270.137,270.137,0,0,0,27.822,2.188,104.2,104.2,0,0,0,36.54-5.725,76.325,76.325,0,0,0,26.882-16.563,93.69,93.69,0,0,0,18.169-24.328,117.857,117.857,0,0,0,10.426-28.091c2.182-9.38,4.126-19.107,5.9-29.147s3.362-20.389,4.8-31.027,2.695-21.561,3.856-32.709,2.21-22.519,3.207-34.025S807.7,442.1,809.3,430.207c2.121-2.938,4.287-5.828,6.437-8.734Z" transform="translate(71.512 485.074)" fill="url(#linear-gradient)"/>
      <path id="Tracé_308" data-name="Tracé 308" d="M576.108,236.48v-1.8a169.76,169.76,0,0,0-46.3-13.942c-40.112-6.462-81.968,4.308-111.617,40.924,50.472-28.455,109.906-28.755,157.913.663V260.1c-31.744-22.9-69.089-34.624-107.337-30.753,38.857-13.408,74.717-9.01,107.337,7.129" transform="translate(311.141 252.67)" fill="url(#linear-gradient)"/>
      <path id="Tracé_309" data-name="Tracé 309" d="M430,469.132c12.02-.084,23.743.129,35.109.627s22.367,1.266,32.979,2.341,20.839,2.455,30.7,4.168,19.4,3.776,28.6,6.238a253.284,253.284,0,0,1,26.582,8.639,202.745,202.745,0,0,1,24.39,11.342,215.834,215.834,0,0,0,32.2,13.184,132.85,132.85,0,0,0,36.206,6.214,90.389,90.389,0,0,0,37.081-6.671c12.1-5.055,23.438-13.412,33.42-26.228,5.917-7.6,13.094-15.741,28.347-26.3,10.647-6.266,21.136-13.074,31.247-20.4a318.554,318.554,0,0,0,28.966-23.62c1.019-.939,2-1.913,3.008-2.867V398.616c-3.617,2.753-7.342,5.372-11.19,7.823-10.243,6.912-20.768,13.934-31.591,20.755s-21.938,13.471-33.295,19.616a316.1,316.1,0,0,1-34.967,16.413,230.734,230.734,0,0,1-36.326,11.017,171.69,171.69,0,0,1-36.246,3.944,121.447,121.447,0,0,1-34.43-4.881c-12.119.084-23.483-.375-34.575-1.31-9.248-.78-18.324-1.908-27.3-3.274S541.047,465.734,532.2,464s-17.663-3.586-26.579-5.43-17.93-3.673-27.121-5.361-18.586-3.229-28.267-4.5-19.655-2.268-30.084-2.865c-16.622-1.361-35.131,19.086-33.869,29.834-1.985,8.745-1.233,17.223-2.688,25.838-2.421,10.457-1.355,21.319,1.505,32.339a142.258,142.258,0,0,0,5.553,16.607c2.2,5.555,4.686,11.116,7.227,16.665s5.154,11.084,7.614,16.557,4.77,10.862,6.7,16.135c3.866,10.543,5.921,20.718,3.861,30.327.328,9.236-7.623,18.345-21.174,26.023a148.967,148.967,0,0,1-24.3,10.67,249.127,249.127,0,0,1-30.679,8.39c-10.462,2.44-20.9,4.771-31.3,7.138s-20.747,4.732-31.049,7.121c-8.922,2.068-17.831,4.243-26.662,6.518s-17.58,4.635-26.254,7.16-17.234,5.232-25.668,8.206-16.723,6.225-24.852,9.873a219.191,219.191,0,0,0-23.771,12.432,237.832,237.832,0,0,0-22.449,15.489,176.9,176.9,0,0,0-19.721,20.871,161.8,161.8,0,0,0-16.7,25.634,225.91,225.91,0,0,0-12.96,29.87,293.691,293.691,0,0,0-9.33,32.666c-1.747,11.573-2.977,23.247-3.608,34.945a342.032,342.032,0,0,0-.089,35.154A335.769,335.769,0,0,0,70.2,962.147,270.385,270.385,0,0,0,78.288,993.9a264.538,264.538,0,0,0,11.094,28.636,235.867,235.867,0,0,0,13.309,25.078c10.434,15.325,21.146,28.113,31.861,37.816,2.276,2.059,4.541,3.978,6.8,5.8H167.44c-3.476-1.769-6.946-3.666-10.415-5.82a135.922,135.922,0,0,1-25.75-21.018,194.3,194.3,0,0,1-25.051-32.83q-6.807-12.1-13-26.215-6.184-14.135-11.676-30.372a311.591,311.591,0,0,1-6.793-35.623,284.849,284.849,0,0,1-2.365-37.568,250.233,250.233,0,0,1,3.042-38.092,240.632,240.632,0,0,1,8.736-36.681,182.083,182.083,0,0,1,14.379-33.034,155.387,155.387,0,0,1,19.42-27.451,144.41,144.41,0,0,1,23.459-21.033,180.957,180.957,0,0,1,26.226-15.732A244.588,244.588,0,0,1,195.8,718.145c9.679-3.334,19.535-6.216,29.585-8.751s20.244-4.754,30.588-6.763,20.81-3.756,31.385-5.413c7.149-.928,14.831-1.751,22.642-2.58s15.75-1.629,23.427-2.516,15.129-1.969,21.948-3.407a94.114,94.114,0,0,0,18.059-5.426c15.143-6.063,26.322-12.706,34.451-19.686s13.3-14.405,16.334-21.935a51.643,51.643,0,0,0,3.521-22.547,66.1,66.1,0,0,0-4.82-20.8c-3.413-10.153-8.143-20.451-12.475-30.865s-8.349-20.94-10.579-31.621-2.843-21.552-.457-32.636c1.643-11.551,14.367-33.782,30.583-34.06" transform="translate(48.416 459.962)" fill="url(#linear-gradient)"/>
      <path id="Tracé_310" data-name="Tracé 310" d="M606.012,251.906v-9.934q-18.427-8.956-37.576-16.258c11.94-5.9,26.328-7.765,37.576-14.571V185.4a59.2,59.2,0,0,0-7.928-.607c-54.064,0-106.384,17.231-155.217,53.847-24.416,21.539-41.856,47.386-54.064,79.694-6.976,23.693-12.208,45.232-10.464,71.079,3.488,34.462,20.928,84,55.808,77.54-13.952-79.694,15.7-165.85,88.944-174.466,29.751-3.868,58.435,5.316,82.921,23.4V311.74c-30.86-21.769-67.912-29.875-105.593-17.1-57.552,19.385-66.272,92.618-85.456,150.773-3.488,8.616-19.184-10.769-22.672-23.693-13.952-38.77-8.72-81.848,8.72-118.464,31.392-64.617,95.92-114.157,156.961-92.618-8.72,6.462-20.928,6.462-29.648,17.231,26.2,5.71,52.393,13.106,77.689,24.038" transform="translate(281.236 213.23)" fill="url(#linear-gradient)"/>
      <path id="Tracé_311" data-name="Tracé 311" d="M356.038,457.364c5.075-13.035,13.139-26.76,27.991-40.521,9.733-9.385,23.863-14.306,35.311-10.425,7.8,4.116,15.825,8.277,24.048,12.376s16.65,8.122,25.25,11.946,17.379,7.433,26.314,10.692,18.016,6.151,27.215,8.521a222.741,222.741,0,0,0,37.5,6.432c10.379,2.527,21.165,4.747,32.264,6.559s22.536,3.209,34.228,4.112,23.6,1.3,35.567,1.1a337.644,337.644,0,0,0,35.909-2.471A288.169,288.169,0,0,0,733,459.117a263.465,263.465,0,0,0,33.954-11.075,230.289,230.289,0,0,0,32.018-15.836,191.611,191.611,0,0,0,29.074-21.248,176.88,176.88,0,0,0,23.583-25.629v-16.18A164.566,164.566,0,0,1,826.971,399.7a171.031,171.031,0,0,1-30.688,23.592,206.962,206.962,0,0,1-34.53,16.626,244.338,244.338,0,0,1-36.947,10.563,273.4,273.4,0,0,1-38.466,4.941,322.6,322.6,0,0,1-38.808-.1,361.142,361.142,0,0,1-37.967-4.4c-12.377-2.1-24.388-4.769-35.955-7.9s-22.686-6.711-33.241-10.595a175.97,175.97,0,0,1-39.1-10.1,188.415,188.415,0,0,1-35.7-18.356,198.952,198.952,0,0,1-31.315-25.433c-9.651-4.881-19.067-7.4-28.333-6.815s-18.527,4.239-28.117,11.646a107.6,107.6,0,0,0-22.133,20.173,100.791,100.791,0,0,0-13.72,22,143.423,143.423,0,0,0-8.148,22.693,186.34,186.34,0,0,0-4.493,22.515c-1.055,7.407-1.725,14.677-2.335,21.67s-1.107,13.709-1.805,20.042c-1.092,6.845-.549,14.1.942,21.617a165.518,165.518,0,0,0,6.805,23.18c2.824,7.879,6.027,15.87,8.915,23.848a167.9,167.9,0,0,1,7,23.529c1.542,7.653,2.042,15.064.7,22.05a37.156,37.156,0,0,1-10.5,19.549c-5.945,6.016-14.667,11.586-26.987,16.7-6.162,2.557-13.2,5.087-21.235,7.642s-17.088,5.157-27.238,7.825q-14.741,3.88-29.257,8.376c-9.674,3-19.257,6.212-28.788,9.749-9.479,3.517-18.882,7.431-28.161,11.853a257.614,257.614,0,0,0-27.3,15.049A197.223,197.223,0,0,0,124.3,742.917a193.727,193.727,0,0,0-23.335,24.961,215.049,215.049,0,0,0-19.8,30.333,238.227,238.227,0,0,0-15.452,35.08A311.551,311.551,0,0,0,55,871.961a332.976,332.976,0,0,0-5.919,40.86,361.192,361.192,0,0,0-1.013,41.751,367.588,367.588,0,0,0,3.718,41.284,385.03,385.03,0,0,0,7.979,39.673c3.3,12.846,7.2,25.278,11.544,37.342,4.594,11.625,9.552,22.777,14.908,33.306q5.052,9.929,10.558,19.058h11.858q-6.284-9.256-12.1-19.654a316.564,316.564,0,0,1-26.457-62.491,358.046,358.046,0,0,1-8.893-35.992,348.553,348.553,0,0,1-6.149-77.038,324.879,324.879,0,0,1,3.549-38.79,308.548,308.548,0,0,1,8.04-37.208,240.57,240.57,0,0,1,12.532-34.275,214.555,214.555,0,0,1,16.727-30.239A180.95,180.95,0,0,1,116.2,764.219a189.515,189.515,0,0,1,22.979-20.148A229.6,229.6,0,0,1,190.2,718.251c8.828-3.177,17.71-5.908,26.666-8.321s17.984-4.53,27.062-6.417c8.343-1.734,17.7-3.472,27.367-5.329s19.644-3.791,29.144-5.861a199.727,199.727,0,0,0,26.354-7.354c7.831-2.9,14.428-6.3,19.027-10.427,9.2-8.247,15.853-16.128,20.51-23.764a60.993,60.993,0,0,0,8.457-22.338,65.11,65.11,0,0,0-.351-21.547,124.974,124.974,0,0,0-5.928-21.141c-2.55-7.035-5.506-14.05-8.376-21.132s-5.672-14.257-7.916-21.668a120.1,120.1,0,0,1-4.768-23.09,101.29,101.29,0,0,1,.635-25.4c1.31-11.515,2.871-24.05,7.954-37.1" transform="translate(35.614 425.96)" fill="url(#linear-gradient)"/>
      <path id="Tracé_312" data-name="Tracé 312" d="M604.166,174.273c2.8,1,5.466,1.775,8.036,2.451V145.759a300.65,300.65,0,0,1-28.963-11.782c-15.314-8.316-32.754-16.932-50.194-14.778-15.7,4.308-22.672,23.693-15.7,40.924,5.232,14,10.175,28.119,14.559,42.32,3.078,14.364,4.7,28.925-15.29,47.972-60.585,38.447-130.345,83.679-144.3,178.45-8.72,52.053,4.36,107.1,36.213,140.2a101.873,101.873,0,0,0,21.34,17.031,56.54,56.54,0,0,0,29.648,7.272,77.935,77.935,0,0,0,29.648-7.272c41.856-23.693,38.368-84,54.064-129.234,10.464-25.847,40.112-15.077,57.552,0A102.047,102.047,0,0,1,612.2,468.111v-27.3c-28.473-32.082-68.628-42.651-103.849-22.717-47.088,28-5.232,79.694-10.464,122.772-5.232,38.77-43.6,49.54-71.5,32.309-54.064-32.309-61.04-120.618-40.112-180.927,29.648-86.156,102.9-109.849,163.937-150.773,6.976-6.462,12.208-12.923,15.959-24.279a429.189,429.189,0,0,0-3.476-54.92c0-4.308,26.16,6.462,41.473,12" transform="translate(275.045 137.157)" fill="url(#linear-gradient)"/>
      <path id="Tracé_313" data-name="Tracé 313" d="M226.6,961.367A299.818,299.818,0,0,1,196.1,984.582c-5.773,4.11-11.917,8.321-18.364,12.63s-13.2,8.706-20.189,13.18a249.218,249.218,0,0,0-60.587,54.866,265.7,265.7,0,0,0-24.514,36.952,354.287,354.287,0,0,0-19.451,42.13,426.908,426.908,0,0,0-12.635,47.011A378.339,378.339,0,0,0,33.57,1240.9a440.407,440.407,0,0,0,4.522,100.656,447.569,447.569,0,0,0,10.316,47.481,427.931,427.931,0,0,0,14.636,43.884q6.713,16.945,14.407,32.332H89.565c-.239-.448-.487-.879-.724-1.329a381.6,381.6,0,0,1-17.29-37.8c-5.256-13.311-9.951-27.3-14.139-41.73a460.507,460.507,0,0,1-9.432-45.275,413.585,413.585,0,0,1-4.541-47.214,389.076,389.076,0,0,1,1.048-47.679,362.183,362.183,0,0,1,6.854-46.212,319.815,319.815,0,0,1,12.56-43.293,278.71,278.71,0,0,1,17.911-39.091,228.627,228.627,0,0,1,22.812-33.614,260.867,260.867,0,0,1,26.566-27.755,284.155,284.155,0,0,1,29.4-20.727,315.131,315.131,0,0,1,30.586-16.273c7.4-3.453,15.443-6.733,23.593-9.856,8.2-3.14,16.542-6.182,24.432-9.122,15.963-5.917,30.123-12.187,38.408-20.294,10.693-10.959,17.873-20.966,22.533-30.361a69.745,69.745,0,0,0,7.372-26.794,95.119,95.119,0,0,0-2.037-25.028c-1.625-8.224-3.894-16.359-5.877-24.673a171.036,171.036,0,0,1-4.493-25.86,106.527,106.527,0,0,1,1.371-28.776c1.024-9.755,3.732-19.928,7.389-30.506s8.092-21.616,12.8-33.028,9.554-23.2,14.66-35.257c4.508-12.234,9.439-24.716,14.555-37.342,5.108-13.3,13.324-23.626,23.106-29.87a41.636,41.636,0,0,1,33.727-5.092c12.543,3.227,24.887,10.093,37.189,18.825a346.312,346.312,0,0,0,29.962,31.079A246.663,246.663,0,0,0,503.1,721.05a147.954,147.954,0,0,0,36.443,17.126c8.863,4.739,18.052,9.339,27.5,13.671s19.179,8.385,29.153,12.04,20.206,6.9,30.649,9.619a283.85,283.85,0,0,0,31.84,6.414,242.409,242.409,0,0,0,32.5,2.417,207.793,207.793,0,0,0,32.561-2.32,190.946,190.946,0,0,0,31.936-7.713,180.428,180.428,0,0,0,30.8-13.613A169.236,169.236,0,0,0,815.233,738.4a180.171,180.171,0,0,0,25.708-27.927,116.412,116.412,0,0,0,21.835-40.047c.108-.349.194-.709.3-1.06V604.4c-3.539-7.364-8.936-12.615-14.9-10.16-20.056,9.693-35.316,29.078-51.666,46.847-8.176,8.885-16.624,17.367-26.106,24.029s-20.014,11.506-32.271,13.124a97.049,97.049,0,0,1-25.792-.25,98.454,98.454,0,0,1-24.367-6.834,108.55,108.55,0,0,1-22.3-12.831A123.978,123.978,0,0,1,646.059,640.1,138.2,138.2,0,0,1,629.9,617.112a153.558,153.558,0,0,1-11.941-27.184c-41.856-127.08,43.6-230.467,122.25-293.262,6.9-15.889,4.571-28.294,1.414-40.638-11.772-36.078-30.956-71.617-41.42-107.156-5.232-23.693,10.464-40.924,29.648-40.924,27.9,2.154,54.064,15.077,79.56,26.043,16.273,4.769,29.224,6.444,41.651,9,4.029.829,8.033,1.822,12.011,2.944V107.687A217.128,217.128,0,0,0,825.89,97.674c-11.343-2-23.005-3.143-35.923-4.489-40.93-17.546-94.994-34.777-126.387,8.3-13.952,19.385-8.72,49.54,3.488,71.079C677.533,190.873,688,209.72,695.191,229.1s11.118,39.309,8.5,59.771c-2.02,10.276-2.02,23.2-9,27.507-66.272,68.925-120.337,165.85-88.944,273.545a179.489,179.489,0,0,0,15.75,38.611,138.879,138.879,0,0,0,21.6,29.181,125.416,125.416,0,0,0,26.145,20.6,131.732,131.732,0,0,0,29.7,12.852,161.337,161.337,0,0,0,32.353,5.96,208.164,208.164,0,0,0,33.9-.032,254.494,254.494,0,0,0,34.165-5.137,282.105,282.105,0,0,0,33.093-9.423c6.985-2.152-3.661,19.344-9.09,27.912a106.04,106.04,0,0,1-19.229,23.393,116.546,116.546,0,0,1-23.649,16.564,156.169,156.169,0,0,1-26.608,11.062,221.635,221.635,0,0,1-28.166,6.808,218.938,218.938,0,0,1-34.892,1.745,223.911,223.911,0,0,1-33.977-3.632,235.2,235.2,0,0,1-32.615-8.495,256.341,256.341,0,0,1-30.974-12.813,296.2,296.2,0,0,1-29.3-16.574c-9.5-6.091-18.778-12.712-27.777-19.771a130.221,130.221,0,0,1-32.29-19,228.442,228.442,0,0,1-28.881-27.4c-9.076-10.1-17.642-20.981-25.717-31.949-11.123-12.206-22.336-20.947-34.392-25.067s-23.973-8.127-35.6-11.357c-11.336-3.231-22.247-2.156-31.267,3.211s-16.334,15-20.619,28.832c-6.158,16.064-11.446,31.729-16.42,46.828s-9.493,29.691-13.378,43.884c-4.707,13.994-8.83,27.546-12.948,40.564s-8.12,25.569-11.762,37.665c-4.064,12.185-7.5,23.891-10.508,35.233q-4.5,16.988-7.079,32.815a239.543,239.543,0,0,0-3.052,30.458,210.4,210.4,0,0,0,.917,27.99c.072,5.314-2.344,11.62-6.88,18.39s-11.21,14.069-19.711,21.53" transform="translate(24.174 85.944)" fill="url(#linear-gradient)"/>
      <path id="Tracé_314" data-name="Tracé 314" d="M612.972,745.031a242.511,242.511,0,0,1-24.235-17.16c-7.853-6.285-15.492-13.087-22.916-20.3s-14.625-14.84-21.554-22.8-13.579-16.251-19.925-24.761c-8.167-9.148-14.8-20.038-20.436-31.858-11.273-23.639-18.56-50.994-26.157-75.548-12.274-2.809-26.662-3.347-40.614-5.5-47.088-10.77-106.384-73.233-130.8-28a387.674,387.674,0,0,0-16.615,35.572q-7.463,18.316-13.26,37.57c-3.88,12.82-7.367,25.9-10.661,39.143-3.542,13.223-7.105,26.558-10.966,39.907q-5.821,20.034-12.588,40.159c-4.508,13.4-9.405,26.771-14.918,40.1S215.638,778.2,209,791.592s-13.717,26.96-20.761,40.676c-7.7,13.873-15.311,27.923-22.939,42.2-7.644,14.3-15.147,28.871-22.281,43.563S129.28,947.56,123.4,962.3s-10.942,29.289-15.094,43.308a135.266,135.266,0,0,1-8.607,22.237c-3.809,8.015-8.471,16.632-13.732,25.836-4.995,9.425-10.447,19.687-15.987,30.74s-11.142,22.887-16.5,35.345-10.222,25.664-14.552,39.246c-4.212,13.54-7.865,27.419-10.713,41.267s-5.073,27.479-6.68,40.487-2.621,25.377-3.068,36.709q-.824,20.881-.016,41.566.808,20.655,3.216,40.874,2.4,20.19,6.155,39.451,3.744,19.224,8.724,37.295,4.963,18.064,10.818,34.751,5.651,16.151,12.02,30.975H75.857c-2.278-4.868-4.514-9.816-6.673-14.9q-7.893-18.565-14.446-38.874-6.53-20.277-11.474-42.057a450.532,450.532,0,0,1-7.726-44.726c-1.87-15.28-3.024-30.788-3.42-46.425a438.292,438.292,0,0,1,1.285-46.558,408.825,408.825,0,0,1,6.242-45.406,371.947,371.947,0,0,1,11.162-43.274,331.61,331.61,0,0,1,15.945-40.157,341.951,341.951,0,0,1,24.688-43,410.48,410.48,0,0,1,30.712-39.914c10.684-12.312,21.273-23.63,30.667-34.215,9.66-10.253,18.023-20.145,24.233-29.825a281.141,281.141,0,0,0,22.465-37.348,219.479,219.479,0,0,0,12.67-31.863c3.193-10.138,5.628-20.046,8.185-30.051s5.161-20.128,8.729-30.665a244.74,244.74,0,0,1,12.743-32.877,294.41,294.41,0,0,1,20.311-36.3,212.869,212.869,0,0,0,15.9-36.638,339.917,339.917,0,0,0,10.56-42.04c2.8-14.483,5.056-29.213,7.386-43.38s4.8-27.749,8.363-39.875c3.3-12.172,8-22.814,14.77-31.13a49.55,49.55,0,0,1,27.315-17.171c23.835-6.462,48.639-.719,73.5,7.2a289.787,289.787,0,0,1,36.535,14.022c7.372,12.116,14.535,24.837,21.978,37.239s15.152,24.479,23.584,35.3,17.59,20.374,28.042,27.768c8.478,7.416,17.339,14.858,26.45,22.118S575,741.7,584.557,748.361s19.325,12.91,29.292,18.519a248.087,248.087,0,0,0,30.536,14.659,184.2,184.2,0,0,0,31.7,9.436,149.394,149.394,0,0,0,32.629,2.914,136.645,136.645,0,0,0,33.03-4.848A142.885,142.885,0,0,0,774.6,775.363c-9.318-1.751-18.656-3.735-27.888-6.117a267.944,267.944,0,0,1-27.289-8.512,197.471,197.471,0,0,1-26.075-11.913A166.9,166.9,0,0,1,646.71,710.9a189.5,189.5,0,0,1-19.756-27.835,211.986,211.986,0,0,1-15.846-33.4c-29.852-80.19-10.975-174.209,33.22-240.349,10.464-17.507,14.133-28.22,15.619-37.635,2.552-17.91,5.07-35.979,7.395-54.287,5.232-43.078-17.44-79.694-33.136-116.31-10.464-25.847-13.952-58.155,5.232-79.694,33.136-38.77,81.968-38.77,124.6-30,18.844-2.535,35.848-4.151,53.288-.92a392.983,392.983,0,0,1,56.485,16.693V58.888c-15.747-7.692-32.135-13.466-49.509-15.8a109.4,109.4,0,0,0-34.776,1.376,129.733,129.733,0,0,0-33.563,11.786c-58.975,9.139-137.456,4.831-161.872,84.525-13.952,45.232,5.232,90.464,12.208,135.7,4.36,30.155,6,59.771,6.214,89.118.108,14.674-.136,29.28-.572,43.853-24.479,73.709-33.014,158.247-15.584,231.764a285.407,285.407,0,0,0,10.926,35.737,268.485,268.485,0,0,0,15.354,33.332,245.931,245.931,0,0,0,19.55,30.351,203.456,203.456,0,0,0,24,26.629,163.251,163.251,0,0,1-27.473-8.876,190.169,190.169,0,0,1-25.745-13.35" transform="translate(13.436 48.805)" fill="url(#linear-gradient)"/>
      <path id="Tracé_315" data-name="Tracé 315" d="M59.122,1542.086q-6.035-16.057-11.577-33.881-5.52-17.834-10.117-37.379-4.57-19.544-7.977-40.719c-2.255-14.1-4.025-28.658-5.248-43.578s-1.889-30.172-2.016-45.658c.005-15.543.738-31.163,2.028-46.858,1.676-15.683,3.91-31.408,6.889-47.119,2.538-13.384,5.809-27.355,9.63-41.346s8.2-27.947,12.7-41.456c4.983-13.115,9.943-25.853,14.6-37.855s8.983-23.256,12.573-33.527c5.583-15.973,10.152-29.519,14.065-41.633s7.055-22.969,9.962-33.286,5.537-20.13,8.411-30.008,5.963-19.76,9.807-29.986a279.184,279.184,0,0,1,14.158-31.664,284.816,284.816,0,0,1,21.266-34.305q7.712-10.972,15.169-21.507,7.432-10.526,14.491-20.585c9.386-13.408,18.089-26.286,26.265-38.93,7.531-12.546,14.458-25.015,20.45-37.469a368.571,368.571,0,0,0,15.63-37.482,308.187,308.187,0,0,0,10.745-37.941,362.28,362.28,0,0,0,6.043-38.62c1.331-12.971,2.248-26,2.883-39.069s.987-26.2.987-39.393c0-36.616,19.184-75.386,54.064-66.771C375.869,524.83,425.524,567.01,474.046,555.7c9.7-2.264,19.364-6.664,31.157,18.379,1.46,29.6,6.985,64.867,19.121,92.73,6.069,13.931,13.79,26.013,24.046,39.574,6,7.45,12.245,15.325,18.783,23.083s13.363,15.4,20.49,22.379a152.647,152.647,0,0,0,22.308,18.446,80.133,80.133,0,0,0,24.557,11.23,390.818,390.818,0,0,1-18.68-39.3,357.676,357.676,0,0,1-14.3-41.762c-15.719-57.087-17.916-119.216-5.909-179.241,3.192-22.011,3.1-38.7,2.935-55.456-.324-33.5-.905-67.249-3.232-101.711-1.744-32.308-15.7-62.463-17.44-94.772-8.72-122.772,88.944-174.466,172.9-177.787a146.544,146.544,0,0,1,37.69-18.778,136.011,136.011,0,0,1,42.289-6.664c19.58,0,38.283,5.568,56.485,13.727V22.252c-40.084-18.252-79.012-35.3-112.293-7.9Q757.3,28.491,740.508,43.58c-11.176,10.076-22.029,20.5-39.293,25.539-91.942,6.309-187.863,86-163.447,217.391,17.44,87.952,23.98,171.416,24.667,256.624.138,17.042-.544,35.912-1.728,56.871-.542,28.481,9.922,56.482,4.714,84.98-8.029,12.8-29.4-23.7-34.629-36.62-12.208-25.847-12.208-56-15.7-86.156-3.488-45.232-27.9-79.694-64.7-90.373-21.7-3.724-36.446-4.084-50.4-5.161-55.808-4.308-158.7-77.54-169.169,12.923-3.488,30.693-5.558,61.52-7.63,92.282-1.036,15.379-2.07,30.743-3.284,46.063s-2.7,30.6-4.932,45.777a331.027,331.027,0,0,1-10.815,45.152,323.739,323.739,0,0,1-19.876,44.508q-6.451,11.146-14.024,22.42c-5.059,7.532-10.522,15.148-16.42,22.915s-12.259,15.784-19.036,24.037-13.98,16.824-21.528,25.64a245.242,245.242,0,0,0-26.162,38.68A270.657,270.657,0,0,0,69.78,926.211a376,376,0,0,0-11.385,39.22c-3.094,13.055-5.619,26.006-7.933,39.067s-4.376,26.191-6.552,39.666-4.421,27.365-7.156,42.048c-1.594,9.736-3.835,20.979-6.484,33.4s-5.665,26.054-8.921,40.312c-2.918,14.457-5.87,29.8-8.582,45.415s-5.131,31.445-7.213,46.7q-3.532,25.869-4.766,50.462-1.271,24.554-.5,47.517.759,22.929,2.693,43.746,1.9,20.81,4.681,39.38,2.763,18.555,5.743,34.771,2.959,16.238,5.984,30.247c4.009,18.687,7.524,34.462,10.4,47.9.377,1.753.732,3.459,1.076,5.133H62.641c-1.184-2.994-2.358-6.02-3.519-9.109" transform="translate(0 0)" fill="url(#linear-gradient)"/>
    </g>
  </g>
</svg>
