<svg id="Groupe_2" data-name="Groupe 2" xmlns="http://www.w3.org/2000/svg" xmlns:xlink="http://www.w3.org/1999/xlink" width="102.251" height="94.5" viewBox="0 0 102.251 94.5">
  <defs>
    <clipPath id="clip-path">
      <rect id="Rectangle_3" data-name="Rectangle 3" width="102.251" height="94.5" fill="#3d3232"/>
    </clipPath>
  </defs>
  <g id="Groupe_1" data-name="Groupe 1" clip-path="url(#clip-path)">
    <path id="Tracé_1" data-name="Tracé 1" d="M306.561,739.394c-.33.034-.628,1.043-.45,2.354a6.425,6.425,0,0,0,2.46,4.221,9.374,9.374,0,0,0-2.678.8,8.572,8.572,0,0,0-1.975,1.253c-1.057.9-1.525,1.8-1.21,2.092a6.511,6.511,0,0,0,2.273,1.266,6.441,6.441,0,0,0,2.593.211,6.049,6.049,0,0,0,2.293-.831,5.677,5.677,0,0,0,1.688-1.687,6.037,6.037,0,0,0,.873-2.287,7.148,7.148,0,0,0-.784-4.587,5.641,5.641,0,0,0-1.3-1.661,4.437,4.437,0,0,0-1.764-.989,4.385,4.385,0,0,0-2.017-.158" transform="translate(-268.969 -657.145)" fill="#3d3232"/>
    <path id="Tracé_2" data-name="Tracé 2" d="M227.777,710.311c-.332-.022-.8.879-.89,2.2a6.122,6.122,0,0,0,.26,2.195,6.87,6.87,0,0,0,.491,1.2,7.062,7.062,0,0,0,.816,1.154c-3.941-.219-6.957,2.183-6.46,2.879a5.851,5.851,0,0,0,1.947,1.658q.295.161.6.29t.619.2a6.464,6.464,0,0,0,1.242.215,5.586,5.586,0,0,0,2.376-.364,5.448,5.448,0,0,0,1.043-.531,5.677,5.677,0,0,0,.91-.759,6,6,0,0,0,1.291-2.045,6.982,6.982,0,0,0,.376-3.5,7.024,7.024,0,0,0-.238-1.087,6.022,6.022,0,0,0-.941-1.853,4.4,4.4,0,0,0-.685-.732,4.04,4.04,0,0,0-.4-.3,4.085,4.085,0,0,0-.429-.273,4.835,4.835,0,0,0-1.923-.544" transform="translate(-197.267 -631.341)" fill="#3d3232"/>
    <path id="Tracé_3" data-name="Tracé 3" d="M157.89,668.919c-.321-.081-.945.7-1.274,1.948a6.217,6.217,0,0,0-.173,2.18,6.634,6.634,0,0,0,.256,1.241,5.68,5.68,0,0,0,.559,1.283,11.431,11.431,0,0,0-1.391-.243,8.514,8.514,0,0,0-1.31-.029,8.656,8.656,0,0,0-2.229.389c-1.274.41-2.041,1.064-1.858,1.43a5.765,5.765,0,0,0,1.562,1.968,6.653,6.653,0,0,0,1.073.712,5.55,5.55,0,0,0,1.162.437,5.357,5.357,0,0,0,2.359.108,5.469,5.469,0,0,0,2.132-.865,5.87,5.87,0,0,0,1.642-1.722,7,7,0,0,0,1.025-4.413,6.136,6.136,0,0,0-.553-1.978,5.1,5.1,0,0,0-.529-.834,4.034,4.034,0,0,0-.691-.719,4.776,4.776,0,0,0-1.761-.895" transform="translate(-133.717 -594.546)" fill="#3d3232"/>
    <path id="Tracé_4" data-name="Tracé 4" d="M99.5,617.126c-.284-.148-1.049.5-1.6,1.641a6.217,6.217,0,0,0-.273,4.666,8.817,8.817,0,0,0-4.789-.823c-1.31.156-2.162.632-2.066,1.029a6.163,6.163,0,0,0,1.13,2.2,6.228,6.228,0,0,0,1.937,1.535,5.789,5.789,0,0,0,2.259.551,5.341,5.341,0,0,0,2.233-.435,5.808,5.808,0,0,0,1.917-1.345,6.706,6.706,0,0,0,1.291-1.953,6.861,6.861,0,0,0,.54-2.105,5.369,5.369,0,0,0-.161-2.016,4.539,4.539,0,0,0-2.416-2.942" transform="translate(-80.67 -548.498)" fill="#3d3232"/>
    <path id="Tracé_5" data-name="Tracé 5" d="M54.852,556.815c-.255-.194-1.1.278-1.864,1.281a5.951,5.951,0,0,0-.539.854,6.233,6.233,0,0,0-.412,1.035,5.95,5.95,0,0,0-.2,2.565,9.362,9.362,0,0,0-2.319-1.242,8.38,8.38,0,0,0-1.127-.314,7.9,7.9,0,0,0-1.023-.153c-1.286-.1-2.213.2-2.188.6a5.434,5.434,0,0,0,.2,1.185,6.413,6.413,0,0,0,.475,1.151,5.517,5.517,0,0,0,1.575,1.851,5.314,5.314,0,0,0,4.3.982,5.778,5.778,0,0,0,2.117-.935,6.531,6.531,0,0,0,1.616-1.633,6.826,6.826,0,0,0,.939-1.939,6,6,0,0,0,.233-1.98,4.71,4.71,0,0,0-.522-1.849,3.937,3.937,0,0,0-.556-.8,4.886,4.886,0,0,0-.695-.662" transform="translate(-40.152 -494.872)" fill="#3d3232"/>
    <path id="Tracé_6" data-name="Tracé 6" d="M25.235,490.265c-.213-.235-1.121.057-2.042.878a6.016,6.016,0,0,0-1.292,1.644,6.281,6.281,0,0,0-.691,2.437,8.353,8.353,0,0,0-2-1.646,8.12,8.12,0,0,0-1.975-.867c-1.229-.346-2.184-.229-2.232.157a5.665,5.665,0,0,0,1.359,4.471,5.175,5.175,0,0,0,3.967,1.775,5.607,5.607,0,0,0,2.213-.488,6.523,6.523,0,0,0,1.887-1.268,6.458,6.458,0,0,0,1.268-1.685,5.574,5.574,0,0,0,.613-1.87,4.4,4.4,0,0,0-1.076-3.539" transform="translate(-13.293 -435.689)" fill="#3d3232"/>
    <path id="Tracé_7" data-name="Tracé 7" d="M10.668,419.757c-.163-.269-1.095-.16-2.136.458a5.911,5.911,0,0,0-2.7,3.561A8.214,8.214,0,0,0,4.223,421.8a7.637,7.637,0,0,0-1.742-1.214c-1.125-.567-2.07-.636-2.188-.274a5.787,5.787,0,0,0-.269,2.33,5.9,5.9,0,0,0,.716,2.234,5.52,5.52,0,0,0,1.5,1.632,5.016,5.016,0,0,0,2,.844,5.568,5.568,0,0,0,2.236-.041,6.363,6.363,0,0,0,2.061-.854,6.674,6.674,0,0,0,1.552-1.38,5.114,5.114,0,0,0,.943-1.688,4.064,4.064,0,0,0,.222-1.857,4.15,4.15,0,0,0-.578-1.779" transform="translate(0 -372.967)" fill="#3d3232"/>
    <path id="Tracé_8" data-name="Tracé 8" d="M11.491,337.2c-.1-.29-1.022-.36-2.156.038a5.637,5.637,0,0,0-1.751,1,6.3,6.3,0,0,0-.833.837,6.23,6.23,0,0,0-.687,1.091c-1.194-3.393-4.294-5.044-4.7-4.388a5.27,5.27,0,0,0-.7,2.2,5.331,5.331,0,0,0,.268,2.287,5.027,5.027,0,0,0,1.13,1.855,4.9,4.9,0,0,0,1.757,1.2,5.52,5.52,0,0,0,2.169.391,6.213,6.213,0,0,0,2.149-.428,6.607,6.607,0,0,0,1.768-1.037,5.546,5.546,0,0,0,1.236-1.454,4.424,4.424,0,0,0,.567-1.756,4.482,4.482,0,0,0-.223-1.83" transform="translate(-0.567 -298.319)" fill="#3d3232"/>
    <path id="Tracé_9" data-name="Tracé 9" d="M27.8,253.119c-.059-.587-3.579-1.026-5.806,1.821-.5-3.5-3.175-5.69-3.688-5.134a5.34,5.34,0,0,0-1.1,1.983,5.529,5.529,0,0,0-.182,2.258,5.241,5.241,0,0,0,.734,2.008,4.893,4.893,0,0,0,1.471,1.492,5.392,5.392,0,0,0,2.013.792,6.151,6.151,0,0,0,2.16,0,6.385,6.385,0,0,0,1.9-.662,5.06,5.06,0,0,0,1.47-1.165,4.081,4.081,0,0,0,.886-1.585,4.244,4.244,0,0,0,.139-1.809" transform="translate(-15.096 -221.956)" fill="#3d3232"/>
    <path id="Tracé_10" data-name="Tracé 10" d="M59.047,174.75c.056-.579-3.255-1.672-5.952.642.2-3.474-1.969-6.094-2.57-5.658a5.342,5.342,0,0,0-1.436,1.7,5.525,5.525,0,0,0-.61,2.137,5.241,5.241,0,0,0,.32,2.076,4.887,4.887,0,0,0,1.13,1.724,5.3,5.3,0,0,0,1.785,1.155,6.052,6.052,0,0,0,2.083.421,6.151,6.151,0,0,0,1.959-.27,4.88,4.88,0,0,0,1.644-.841,3.947,3.947,0,0,0,1.162-1.361,4.094,4.094,0,0,0,.484-1.722" transform="translate(-43.085 -150.822)" fill="#3d3232"/>
    <path id="Tracé_11" data-name="Tracé 11" d="M104.211,105.115c.165-.549-2.822-2.227-5.865-.514.858-3.313-.74-6.249-1.4-5.944a5.243,5.243,0,0,0-1.705,1.359,5.4,5.4,0,0,0-.994,1.94,5.127,5.127,0,0,0-.089,2.06,4.793,4.793,0,0,0,.757,1.878,5.22,5.22,0,0,0,1.5,1.459,5.937,5.937,0,0,0,1.926.809,6.062,6.062,0,0,0,1.942.117,4.82,4.82,0,0,0,1.749-.5,3.912,3.912,0,0,0,1.385-1.094,4.041,4.041,0,0,0,.8-1.573" transform="translate(-83.631 -87.67)" fill="#3d3232"/>
    <path id="Tracé_12" data-name="Tracé 12" d="M161.394,46.759c.264-.5-2.3-2.681-5.559-1.609,1.458-3.032.471-6.165-.222-6a5.122,5.122,0,0,0-1.9.985,5.247,5.247,0,0,0-1.325,1.679,4.971,4.971,0,0,0-.478,1.966,4.665,4.665,0,0,0,.369,1.953,5.141,5.141,0,0,0,1.163,1.694,5.816,5.816,0,0,0,1.7,1.149,6.024,6.024,0,0,0,1.851.486,4.812,4.812,0,0,0,1.783-.146,3.9,3.9,0,0,0,1.546-.794,4,4,0,0,0,1.071-1.368" transform="translate(-135.018 -34.796)" fill="#3d3232"/>
    <path id="Tracé_13" data-name="Tracé 13" d="M221.04,12.25c.3-.4-1.631-2.634-4.607-2.179,1.707-2.418,1.264-5.273.646-5.223a4.288,4.288,0,0,0-1.767.578A4.414,4.414,0,0,0,213.5,7.454a4.42,4.42,0,0,0-.255.847,4.233,4.233,0,0,0,.024,1.737,4.525,4.525,0,0,0,.747,1.643,5.157,5.157,0,0,0,2.834,1.959,4.353,4.353,0,0,0,.791.133,4.14,4.14,0,0,0,.789,0A3.8,3.8,0,0,0,219.9,13.3a3.744,3.744,0,0,0,1.139-1.048" transform="translate(-189.467 -4.308)" fill="#3d3232"/>
    <path id="Tracé_14" data-name="Tracé 14" d="M277.321.575a.584.584,0,0,1,.244.775,5.809,5.809,0,0,1-1.282,1.729,5.442,5.442,0,0,1-1.692,1.094,5.674,5.674,0,0,1-1.97.418,6.266,6.266,0,0,1-2.127-.327.584.584,0,0,1-.372-.722,4.83,4.83,0,0,1,1.119-1.917A5.09,5.09,0,0,1,273.034.39,5.267,5.267,0,0,1,275.177,0a5.134,5.134,0,0,1,2.144.575" transform="translate(-240.068 0)" fill="#3d3232"/>
    <path id="Tracé_15" data-name="Tracé 15" d="M71.213,495.224l.628,1.716.706,1.686a6.59,6.59,0,0,0,3.155-2.953,5.573,5.573,0,0,0,.613-1.87,4.4,4.4,0,0,0-1.076-3.539c-.213-.235-1.121.057-2.042.878a6.014,6.014,0,0,0-1.292,1.644,6.283,6.283,0,0,0-.691,2.437" transform="translate(-63.296 -435.689)" fill="#3d3232"/>
    <path id="Tracé_16" data-name="Tracé 16" d="M52.481,423.776s.019.224.08.556l.2,1.22c.038.222.071.444.111.651l.121.563.118.549a6.362,6.362,0,0,0,2.061-.854,6.677,6.677,0,0,0,1.552-1.38,5.114,5.114,0,0,0,.943-1.688,4.065,4.065,0,0,0,.222-1.857,4.151,4.151,0,0,0-.578-1.779c-.163-.269-1.095-.16-2.136.458a5.912,5.912,0,0,0-2.7,3.561" transform="translate(-46.646 -372.967)" fill="#3d3232"/>
    <path id="Tracé_17" data-name="Tracé 17" d="M104.59,562.551l.295.5c.089.149.189.327.3.511l.372.571.7,1.069.337.472a6.531,6.531,0,0,0,1.616-1.633,6.826,6.826,0,0,0,.939-1.939,6,6,0,0,0,.233-1.98,4.71,4.71,0,0,0-.522-1.849,3.937,3.937,0,0,0-.556-.8,4.886,4.886,0,0,0-.695-.662c-.255-.194-1.1.278-1.864,1.281a5.951,5.951,0,0,0-.539.854,6.228,6.228,0,0,0-.412,1.035,5.95,5.95,0,0,0-.2,2.565" transform="translate(-92.91 -494.872)" fill="#3d3232"/>
    <path id="Tracé_18" data-name="Tracé 18" d="M149.848,623.433l.106.123c.065.08.166.188.288.315l.889.943c.317.349.663.67.915.918l.423.41a6.707,6.707,0,0,0,1.291-1.953,6.859,6.859,0,0,0,.54-2.106,5.366,5.366,0,0,0-.161-2.016,4.215,4.215,0,0,0-.885-1.737,4.259,4.259,0,0,0-1.531-1.205c-.284-.148-1.049.5-1.6,1.641a6.217,6.217,0,0,0-.273,4.666" transform="translate(-132.895 -548.497)" fill="#3d3232"/>
    <path id="Tracé_19" data-name="Tracé 19" d="M271.584,714.011a6.024,6.024,0,0,0-.941-1.853,4.388,4.388,0,0,0-.685-.732,4.041,4.041,0,0,0-.4-.3,4.108,4.108,0,0,0-.429-.273,4.836,4.836,0,0,0-1.923-.544c-.332-.022-.8.879-.89,2.2a6.123,6.123,0,0,0,.26,2.195,6.858,6.858,0,0,0,.491,1.2,7.069,7.069,0,0,0,.816,1.154l.545.268c.326.163.777.345,1.221.543s.888.4,1.231.517l.567.217a6.9,6.9,0,0,0,.452-2.366,7.537,7.537,0,0,0-.314-2.224" transform="translate(-236.695 -631.341)" fill="#3d3232"/>
    <path id="Tracé_20" data-name="Tracé 20" d="M48.766,350.738s-.066.883-.07,1.768c-.033.885,0,1.769,0,1.769a6.214,6.214,0,0,0,2.149-.428,6.608,6.608,0,0,0,1.768-1.037,5.546,5.546,0,0,0,1.236-1.454,4.422,4.422,0,0,0,.567-1.756,4.48,4.48,0,0,0-.223-1.83c-.1-.29-1.022-.36-2.156.038a5.638,5.638,0,0,0-1.751,1,6.3,6.3,0,0,0-.833.837,6.231,6.231,0,0,0-.687,1.091" transform="translate(-43.269 -308.894)" fill="#3d3232"/>
    <path id="Tracé_21" data-name="Tracé 21" d="M204.983,675.571l.481.356c.293.208.664.511,1.067.77l1.092.735c.3.2.5.326.5.326a7,7,0,0,0,1.025-4.413,6.134,6.134,0,0,0-.553-1.978,5.084,5.084,0,0,0-.529-.834,4.031,4.031,0,0,0-.691-.719,4.775,4.775,0,0,0-1.761-.895c-.321-.081-.945.7-1.274,1.948a6.216,6.216,0,0,0-.173,2.18,6.634,6.634,0,0,0,.256,1.241,5.675,5.675,0,0,0,.559,1.283" transform="translate(-181.442 -594.546)" fill="#3d3232"/>
    <path id="Tracé_22" data-name="Tracé 22" d="M336.119,745.969l.163.046.435.1,1.321.3c.479.118.968.185,1.331.258l.606.11a7.148,7.148,0,0,0-.784-4.588,5.642,5.642,0,0,0-1.3-1.661,4.436,4.436,0,0,0-1.764-.989,4.386,4.386,0,0,0-2.017-.158c-.33.034-.628,1.043-.45,2.354a6.425,6.425,0,0,0,2.46,4.221" transform="translate(-296.516 -657.145)" fill="#3d3232"/>
    <path id="Tracé_23" data-name="Tracé 23" d="M79,209.713l-.066.131c-.043.083-.1.2-.167.35l-.486,1.071c-.184.387-.337.786-.459,1.083l-.2.5a6.052,6.052,0,0,0,2.083.421,6.151,6.151,0,0,0,1.959-.27,4.877,4.877,0,0,0,1.644-.841,3.951,3.951,0,0,0,1.163-1.361,4.094,4.094,0,0,0,.484-1.723c.056-.579-3.255-1.671-5.952.642" transform="translate(-68.992 -185.143)" fill="#3d3232"/>
    <path id="Tracé_24" data-name="Tracé 24" d="M56.049,278.655s-.061.209-.139.526l-.267,1.166c-.1.423-.185.85-.242,1.172l-.1.535a6.151,6.151,0,0,0,2.16,0,6.383,6.383,0,0,0,1.9-.662,5.062,5.062,0,0,0,1.47-1.165,4.082,4.082,0,0,0,.886-1.585,4.246,4.246,0,0,0,.139-1.809c-.059-.587-3.579-1.026-5.806,1.821" transform="translate(-49.153 -245.672)" fill="#3d3232"/>
    <path id="Tracé_25" data-name="Tracé 25" d="M116.884,146.288l-.089.114c-.056.073-.139.175-.229.3l-.675.94c-.251.338-.479.692-.653.955l-.29.439a5.938,5.938,0,0,0,1.926.809,6.062,6.062,0,0,0,1.942.117,4.822,4.822,0,0,0,1.749-.5,3.91,3.91,0,0,0,1.385-1.094,4.038,4.038,0,0,0,.8-1.573c.165-.549-2.822-2.228-5.865-.514" transform="translate(-102.169 -129.357)" fill="#3d3232"/>
    <path id="Tracé_26" data-name="Tracé 26" d="M168.107,90.8l-.388.341-.829.778c-.305.279-.6.571-.813.794l-.363.368a5.816,5.816,0,0,0,1.7,1.149,6.021,6.021,0,0,0,1.851.486,4.812,4.812,0,0,0,1.783-.146,3.9,3.9,0,0,0,1.546-.794,4,4,0,0,0,1.071-1.368c.264-.5-2.3-2.681-5.559-1.609" transform="translate(-147.291 -80.442)" fill="#3d3232"/>
    <path id="Tracé_27" data-name="Tracé 27" d="M223.223,51.349l-.385.241c-.232.143-.539.337-.837.546l-.825.563c-.227.151-.372.26-.372.26a5.158,5.158,0,0,0,2.834,1.959,4.352,4.352,0,0,0,.791.133,4.149,4.149,0,0,0,.789,0,3.794,3.794,0,0,0,1.472-.476,3.744,3.744,0,0,0,1.139-1.048c.3-.4-1.631-2.634-4.607-2.179" transform="translate(-196.256 -45.586)" fill="#3d3232"/>
    <path id="Tracé_28" data-name="Tracé 28" d="M271.02,11.548h0a6.264,6.264,0,0,0,2.127.327,5.676,5.676,0,0,0,1.97-.418,5.442,5.442,0,0,0,1.692-1.094,5.807,5.807,0,0,0,1.282-1.729.6.6,0,0,0,.034-.439l-1.194.4-.578.194-.636.241c-.439.173-.918.332-1.378.538l-1.36.58-1.167.551c-.344.157-.622.3-.817.406l-.307.16a.583.583,0,0,0,.331.285" transform="translate(-240.595 -7.283)" fill="#3d3232"/>
    <path id="Tracé_29" data-name="Tracé 29" d="M435.755,799.731a2.68,2.68,0,1,0,2.68-2.68,2.68,2.68,0,0,0-2.68,2.68" transform="translate(-387.309 -708.438)" fill="#3d3232"/>
    <path id="Tracé_30" data-name="Tracé 30" d="M462.542,799.731a2.68,2.68,0,0,0-2.68-2.68v5.36a2.68,2.68,0,0,0,2.68-2.68" transform="translate(-408.736 -708.438)" fill="#3d3232"/>
    <path id="Tracé_31" data-name="Tracé 31" d="M537.74,750.126c.314-.293-.153-1.2-1.21-2.092a8.575,8.575,0,0,0-1.975-1.254,9.384,9.384,0,0,0-2.678-.8,6.426,6.426,0,0,0,2.461-4.221c.178-1.311-.119-2.32-.45-2.354a4.387,4.387,0,0,0-2.017.157,4.436,4.436,0,0,0-1.764.989,5.644,5.644,0,0,0-1.3,1.661,7.148,7.148,0,0,0-.784,4.588,6.041,6.041,0,0,0,.873,2.287,5.676,5.676,0,0,0,1.687,1.687,6.046,6.046,0,0,0,2.293.831,6.444,6.444,0,0,0,2.593-.211,6.514,6.514,0,0,0,2.273-1.266" transform="translate(-469.232 -657.153)" fill="#3d3232"/>
    <path id="Tracé_32" data-name="Tracé 32" d="M613.516,719.948c.5-.7-2.519-3.1-6.459-2.879a7.074,7.074,0,0,0,.816-1.154,6.863,6.863,0,0,0,.491-1.2,6.123,6.123,0,0,0,.261-2.195c-.088-1.317-.558-2.218-.89-2.2a4.835,4.835,0,0,0-1.923.543,4.12,4.12,0,0,0-.429.273,4.056,4.056,0,0,0-.4.3,4.4,4.4,0,0,0-.685.732,6.021,6.021,0,0,0-.942,1.853,7.536,7.536,0,0,0-.314,2.224,6.9,6.9,0,0,0,.451,2.366,6,6,0,0,0,1.291,2.045,5.666,5.666,0,0,0,.91.759,5.43,5.43,0,0,0,1.043.531,5.586,5.586,0,0,0,2.376.365,6.458,6.458,0,0,0,1.242-.215q.311-.085.619-.2t.6-.29a5.85,5.85,0,0,0,1.947-1.658" transform="translate(-535.996 -631.353)" fill="#3d3232"/>
    <path id="Tracé_33" data-name="Tracé 33" d="M681.132,677.136c.183-.366-.584-1.02-1.858-1.43a8.656,8.656,0,0,0-2.229-.389,8.521,8.521,0,0,0-1.31.029,11.43,11.43,0,0,0-1.392.243,5.669,5.669,0,0,0,.559-1.283,6.629,6.629,0,0,0,.256-1.241,6.213,6.213,0,0,0-.173-2.18c-.328-1.249-.953-2.03-1.274-1.948a4.772,4.772,0,0,0-1.761.895,4.025,4.025,0,0,0-.691.719,5.091,5.091,0,0,0-.529.834,6.134,6.134,0,0,0-.553,1.978,7,7,0,0,0,1.025,4.413,5.873,5.873,0,0,0,1.642,1.722,5.468,5.468,0,0,0,2.132.865,5.358,5.358,0,0,0,2.359-.108,5.555,5.555,0,0,0,1.162-.437,6.647,6.647,0,0,0,1.073-.712,5.763,5.763,0,0,0,1.562-1.968" transform="translate(-595.636 -594.561)" fill="#3d3232"/>
    <path id="Tracé_34" data-name="Tracé 34" d="M738.247,623.657c.1-.4-.755-.873-2.066-1.029a8.816,8.816,0,0,0-4.789.823,6.217,6.217,0,0,0-.272-4.666c-.553-1.144-1.318-1.79-1.6-1.641a4.256,4.256,0,0,0-1.531,1.205,4.212,4.212,0,0,0-.885,1.737,5.369,5.369,0,0,0-.161,2.016,6.857,6.857,0,0,0,.54,2.106,6.7,6.7,0,0,0,1.291,1.953,5.809,5.809,0,0,0,1.917,1.346,5.342,5.342,0,0,0,2.233.435,5.789,5.789,0,0,0,2.26-.551,6.228,6.228,0,0,0,1.937-1.535,6.165,6.165,0,0,0,1.13-2.2" transform="translate(-646.095 -548.513)" fill="#3d3232"/>
    <path id="Tracé_35" data-name="Tracé 35" d="M782.942,561.457c.025-.4-.9-.7-2.188-.6a7.909,7.909,0,0,0-1.023.153,8.384,8.384,0,0,0-1.126.314,9.366,9.366,0,0,0-2.319,1.242,5.95,5.95,0,0,0-.2-2.566,6.216,6.216,0,0,0-.411-1.035,5.934,5.934,0,0,0-.539-.854c-.762-1-1.61-1.475-1.864-1.282a4.884,4.884,0,0,0-.695.662,3.942,3.942,0,0,0-.556.795,4.713,4.713,0,0,0-.522,1.849,6,6,0,0,0,.233,1.98,6.823,6.823,0,0,0,.939,1.939,6.53,6.53,0,0,0,1.616,1.633,5.781,5.781,0,0,0,2.117.935,5.315,5.315,0,0,0,4.3-.982,5.52,5.52,0,0,0,1.575-1.851,6.418,6.418,0,0,0,.475-1.151,5.421,5.421,0,0,0,.2-1.185" transform="translate(-685.714 -494.888)" fill="#3d3232"/>
    <path id="Tracé_36" data-name="Tracé 36" d="M813.66,492.885c-.048-.387-1-.5-2.232-.157a8.119,8.119,0,0,0-1.975.867,8.354,8.354,0,0,0-2,1.646,6.279,6.279,0,0,0-.691-2.437,6.013,6.013,0,0,0-1.292-1.644c-.921-.821-1.829-1.113-2.042-.878a4.4,4.4,0,0,0-1.076,3.539,5.577,5.577,0,0,0,.613,1.87,6.458,6.458,0,0,0,1.268,1.685,6.524,6.524,0,0,0,1.887,1.268,5.609,5.609,0,0,0,2.213.488,5.175,5.175,0,0,0,3.967-1.775,5.666,5.666,0,0,0,1.36-4.471" transform="translate(-713.119 -435.704)" fill="#3d3232"/>
    <path id="Tracé_37" data-name="Tracé 37" d="M829.3,420.331c-.118-.363-1.062-.293-2.188.273a7.644,7.644,0,0,0-1.742,1.214,8.208,8.208,0,0,0-1.612,1.973,5.912,5.912,0,0,0-2.7-3.562c-1.041-.618-1.973-.727-2.136-.458a4.15,4.15,0,0,0-.578,1.779,4.066,4.066,0,0,0,.222,1.857,5.117,5.117,0,0,0,.943,1.688,6.677,6.677,0,0,0,1.551,1.38,6.363,6.363,0,0,0,2.061.854,5.566,5.566,0,0,0,2.236.041,5.014,5.014,0,0,0,2-.844,5.519,5.519,0,0,0,1.5-1.632,5.9,5.9,0,0,0,.716-2.234,5.785,5.785,0,0,0-.269-2.33" transform="translate(-727.339 -372.981)" fill="#3d3232"/>
    <path id="Tracé_38" data-name="Tracé 38" d="M829.655,335.791c-.4-.656-3.5.995-4.7,4.388a5.6,5.6,0,0,0-1.519-1.928,5.638,5.638,0,0,0-1.751-1c-1.134-.4-2.057-.328-2.156-.038a4.482,4.482,0,0,0-.223,1.83,4.421,4.421,0,0,0,.567,1.756,5.543,5.543,0,0,0,1.235,1.454,6.611,6.611,0,0,0,1.768,1.037,6.208,6.208,0,0,0,2.15.428,5.517,5.517,0,0,0,2.169-.391,4.9,4.9,0,0,0,1.758-1.2,5.027,5.027,0,0,0,1.13-1.855,5.33,5.33,0,0,0,.269-2.287,5.271,5.271,0,0,0-.7-2.2" transform="translate(-728.203 -298.333)" fill="#3d3232"/>
    <path id="Tracé_39" data-name="Tracé 39" d="M814.671,249.818c-.513-.556-3.19,1.631-3.688,5.134-2.226-2.847-5.747-2.408-5.806-1.821a4.244,4.244,0,0,0,.139,1.809,4.08,4.08,0,0,0,.886,1.585,5.059,5.059,0,0,0,1.47,1.165,6.379,6.379,0,0,0,1.9.662,6.149,6.149,0,0,0,2.16,0,5.39,5.39,0,0,0,2.013-.792,4.893,4.893,0,0,0,1.471-1.492,5.244,5.244,0,0,0,.734-2.008,5.533,5.533,0,0,0-.182-2.258,5.342,5.342,0,0,0-1.1-1.983" transform="translate(-715.628 -221.968)" fill="#3d3232"/>
    <path id="Tracé_40" data-name="Tracé 40" d="M784.669,169.744c-.6-.436-2.768,2.183-2.57,5.658-2.7-2.314-6.008-1.221-5.952-.643a4.094,4.094,0,0,0,.484,1.723,3.951,3.951,0,0,0,1.162,1.361,4.881,4.881,0,0,0,1.644.841,6.154,6.154,0,0,0,1.959.27,6.052,6.052,0,0,0,2.083-.421,5.3,5.3,0,0,0,1.785-1.155,4.885,4.885,0,0,0,1.13-1.724,5.24,5.24,0,0,0,.32-2.076,5.528,5.528,0,0,0-.61-2.137,5.345,5.345,0,0,0-1.436-1.7" transform="translate(-689.857 -150.83)" fill="#3d3232"/>
    <path id="Tracé_41" data-name="Tracé 41" d="M741.834,98.664c-.66-.306-2.258,2.631-1.4,5.944-3.043-1.714-6.03-.035-5.865.514a4.04,4.04,0,0,0,.8,1.573,3.911,3.911,0,0,0,1.385,1.094,4.822,4.822,0,0,0,1.749.5,6.059,6.059,0,0,0,1.942-.117,5.938,5.938,0,0,0,1.926-.809,5.218,5.218,0,0,0,1.5-1.459,4.791,4.791,0,0,0,.757-1.878,5.127,5.127,0,0,0-.089-2.06,5.4,5.4,0,0,0-.994-1.94,5.243,5.243,0,0,0-1.705-1.359" transform="translate(-652.896 -87.675)" fill="#3d3232"/>
    <path id="Tracé_42" data-name="Tracé 42" d="M688.122,39.157c-.693-.169-1.681,2.964-.223,6-3.259-1.073-5.823,1.109-5.559,1.609a4,4,0,0,0,1.071,1.368,3.9,3.9,0,0,0,1.546.794,4.814,4.814,0,0,0,1.783.147,6.024,6.024,0,0,0,1.851-.486,5.818,5.818,0,0,0,1.7-1.149,5.143,5.143,0,0,0,1.163-1.694,4.664,4.664,0,0,0,.369-1.953,4.969,4.969,0,0,0-.478-1.966,5.247,5.247,0,0,0-1.325-1.679,5.122,5.122,0,0,0-1.9-.985" transform="translate(-606.463 -34.798)" fill="#3d3232"/>
    <path id="Tracé_43" data-name="Tracé 43" d="M639.441,4.848c-.617-.049-1.061,2.806.646,5.224-2.976-.455-4.91,1.776-4.607,2.179A3.745,3.745,0,0,0,636.62,13.3a3.8,3.8,0,0,0,1.472.476,4.149,4.149,0,0,0,.789,0,4.352,4.352,0,0,0,.791-.133,5.158,5.158,0,0,0,2.835-1.959,4.53,4.53,0,0,0,.747-1.644,4.232,4.232,0,0,0,.024-1.737,4.422,4.422,0,0,0-.255-.847,4.42,4.42,0,0,0-3.581-2.607" transform="translate(-564.803 -4.308)" fill="#3d3232"/>
    <path id="Tracé_44" data-name="Tracé 44" d="M581.966,1.351h0a.584.584,0,0,1,.244-.774A5.132,5.132,0,0,1,584.354,0a5.269,5.269,0,0,1,2.142.39,5.092,5.092,0,0,1,1.794,1.236,4.832,4.832,0,0,1,1.119,1.917.584.584,0,0,1-.372.722,6.261,6.261,0,0,1-2.127.327,5.678,5.678,0,0,1-1.97-.418,5.444,5.444,0,0,1-1.692-1.095,5.806,5.806,0,0,1-1.282-1.729" transform="translate(-517.211 -0.001)" fill="#3d3232"/>
    <path id="Tracé_45" data-name="Tracé 45" d="M837.844,513.785l-.628,1.716-.706,1.686a5.609,5.609,0,0,0,2.213.488,5.176,5.176,0,0,0,3.967-1.775,5.666,5.666,0,0,0,1.36-4.471c-.048-.387-1-.5-2.232-.157a8.12,8.12,0,0,0-1.975.867,8.355,8.355,0,0,0-2,1.646" transform="translate(-743.511 -454.248)" fill="#3d3232"/>
    <path id="Tracé_46" data-name="Tracé 46" d="M862.182,427.574s-.02.224-.08.556l-.2,1.22c-.038.222-.071.444-.111.651l-.121.563-.118.55a5.566,5.566,0,0,0,2.236.041,5.015,5.015,0,0,0,2-.844,5.52,5.52,0,0,0,1.5-1.632,5.9,5.9,0,0,0,.716-2.234,5.787,5.787,0,0,0-.269-2.33c-.118-.363-1.062-.293-2.188.273a7.634,7.634,0,0,0-1.742,1.214,8.211,8.211,0,0,0-1.612,1.973" transform="translate(-765.765 -376.763)" fill="#3d3232"/>
    <path id="Tracé_47" data-name="Tracé 47" d="M798.621,594.938l-.294.5c-.09.149-.189.327-.3.511l-.372.571-.7,1.069-.337.472a5.783,5.783,0,0,0,2.117.935,5.315,5.315,0,0,0,4.3-.982,5.518,5.518,0,0,0,1.575-1.851,6.422,6.422,0,0,0,.475-1.151,5.435,5.435,0,0,0,.2-1.185c.025-.4-.9-.7-2.188-.6a7.92,7.92,0,0,0-1.023.153,8.4,8.4,0,0,0-1.126.314,9.368,9.368,0,0,0-2.319,1.242" transform="translate(-708.051 -527.258)" fill="#3d3232"/>
    <path id="Tracé_48" data-name="Tracé 48" d="M746.268,667.017l-.106.123c-.065.08-.166.187-.288.315l-.889.943c-.317.349-.663.67-.915.918l-.423.41a5.806,5.806,0,0,0,1.917,1.345,5.344,5.344,0,0,0,2.233.435,5.788,5.788,0,0,0,2.259-.551,6.228,6.228,0,0,0,1.937-1.534,6.164,6.164,0,0,0,1.13-2.2c.1-.4-.755-.873-2.066-1.029a8.818,8.818,0,0,0-4.789.823" transform="translate(-660.971 -592.079)" fill="#3d3232"/>
    <path id="Tracé_49" data-name="Tracé 49" d="M610.353,775.76a5.587,5.587,0,0,0,2.376.364,6.447,6.447,0,0,0,1.242-.215q.311-.085.619-.2t.6-.29a5.85,5.85,0,0,0,1.947-1.658c.5-.7-2.519-3.1-6.459-2.879l-.545.268c-.326.163-.777.344-1.221.543s-.888.4-1.231.518l-.567.217a6,6,0,0,0,1.291,2.045,5.671,5.671,0,0,0,.91.759,5.447,5.447,0,0,0,1.043.531" transform="translate(-539.613 -685.165)" fill="#3d3232"/>
    <path id="Tracé_50" data-name="Tracé 50" d="M870.279,340.179s.066.883.07,1.768c.033.885,0,1.769,0,1.769a5.517,5.517,0,0,0,2.169-.391,4.895,4.895,0,0,0,1.757-1.2,5.028,5.028,0,0,0,1.13-1.855,5.334,5.334,0,0,0,.268-2.287,5.27,5.27,0,0,0-.7-2.2c-.4-.656-3.5.995-4.7,4.388" transform="translate(-773.525 -298.333)" fill="#3d3232"/>
    <path id="Tracé_51" data-name="Tracé 51" d="M682.839,726.541l-.481.356c-.293.208-.664.511-1.067.77l-1.092.735c-.3.2-.5.326-.5.326a5.874,5.874,0,0,0,1.642,1.722,5.467,5.467,0,0,0,2.132.865,5.357,5.357,0,0,0,2.359-.108,5.545,5.545,0,0,0,1.162-.437,6.628,6.628,0,0,0,1.073-.712,5.762,5.762,0,0,0,1.562-1.968c.183-.366-.584-1.02-1.858-1.43a8.66,8.66,0,0,0-2.229-.389,8.529,8.529,0,0,0-1.31.029,11.43,11.43,0,0,0-1.392.243" transform="translate(-604.131 -645.514)" fill="#3d3232"/>
    <path id="Tracé_52" data-name="Tracé 52" d="M532.64,798.952l-.163.046-.435.1-1.321.3c-.479.118-.969.185-1.331.258l-.606.11a6.037,6.037,0,0,0,.873,2.287,5.675,5.675,0,0,0,1.687,1.687,6.045,6.045,0,0,0,2.293.831,6.44,6.44,0,0,0,2.593-.211A6.515,6.515,0,0,0,538.5,803.1c.314-.293-.153-1.2-1.21-2.092a8.579,8.579,0,0,0-1.975-1.254,9.378,9.378,0,0,0-2.678-.8" transform="translate(-469.995 -710.127)" fill="#3d3232"/>
    <path id="Tracé_53" data-name="Tracé 53" d="M857.694,254.953s.061.209.139.526l.267,1.166c.1.423.184.85.242,1.172l.1.535a5.392,5.392,0,0,0,2.013-.792,4.9,4.9,0,0,0,1.471-1.492,5.243,5.243,0,0,0,.734-2.008,5.532,5.532,0,0,0-.182-2.258,5.345,5.345,0,0,0-1.1-1.983c-.513-.556-3.19,1.631-3.688,5.134" transform="translate(-762.339 -221.968)" fill="#3d3232"/>
    <path id="Tracé_54" data-name="Tracé 54" d="M829.585,175.4l.066.131c.043.083.1.2.167.35l.486,1.072c.184.387.337.786.459,1.083l.2.5a5.3,5.3,0,0,0,1.785-1.155,4.884,4.884,0,0,0,1.13-1.724,5.24,5.24,0,0,0,.32-2.076,5.528,5.528,0,0,0-.61-2.137,5.346,5.346,0,0,0-1.436-1.7c-.6-.436-2.768,2.183-2.57,5.658" transform="translate(-737.343 -150.83)" fill="#3d3232"/>
    <path id="Tracé_55" data-name="Tracé 55" d="M785.4,104.608l.089.114c.056.073.139.175.229.3l.675.94c.251.338.479.692.652.955l.29.439a5.219,5.219,0,0,0,1.5-1.459,4.793,4.793,0,0,0,.757-1.878,5.129,5.129,0,0,0-.089-2.06,5.4,5.4,0,0,0-.994-1.94,5.241,5.241,0,0,0-1.705-1.359c-.66-.306-2.258,2.631-1.4,5.944" transform="translate(-697.862 -87.676)" fill="#3d3232"/>
    <path id="Tracé_56" data-name="Tracé 56" d="M726.472,45.154l.388.341.829.778c.305.279.6.571.813.794l.363.368a5.141,5.141,0,0,0,1.163-1.694,4.663,4.663,0,0,0,.369-1.953,4.969,4.969,0,0,0-.478-1.966,5.247,5.247,0,0,0-1.325-1.679,5.123,5.123,0,0,0-1.9-.985c-.693-.17-1.681,2.964-.222,6" transform="translate(-645.036 -34.799)" fill="#3d3232"/>
    <path id="Tracé_57" data-name="Tracé 57" d="M667.6,10.071l.385.241c.232.143.539.337.837.546l.825.563c.227.151.372.26.372.26a4.528,4.528,0,0,0,.747-1.643,4.233,4.233,0,0,0,.024-1.737,4.43,4.43,0,0,0-.255-.847,4.419,4.419,0,0,0-3.581-2.607c-.617-.049-1.061,2.806.646,5.224" transform="translate(-592.314 -4.308)" fill="#3d3232"/>
    <path id="Tracé_58" data-name="Tracé 58" d="M589.624,3.542h0a4.832,4.832,0,0,0-1.119-1.917A5.088,5.088,0,0,0,586.711.39,5.267,5.267,0,0,0,584.569,0a5.135,5.135,0,0,0-2.144.575.563.563,0,0,0-.278.335l1.194.4.578.194.636.241c.439.173.918.332,1.377.538l1.36.58,1.167.551c.344.157.622.3.817.406l.307.16a.576.576,0,0,0,.04-.437" transform="translate(-517.426 0)" fill="#3d3232"/>
    <path id="Tracé_59" data-name="Tracé 59" d="M245.931,230.96a31.246,31.246,0,0,0-9.006,1.27,15.183,15.183,0,0,1-5.144.8c-3.681-.506-5.093-2.747-7.4-3.513a3.733,3.733,0,0,0-5.2,3.582,3.646,3.646,0,0,0,3.1,3.451,2.979,2.979,0,0,0,3.18-1.617,2.36,2.36,0,0,0-1.543-3.36.12.12,0,0,0-.13.177c.352.657.266,2.233-1.168,2.02s-1.491-2.659.688-2.6c2.063.058,4,2.894,7.948,3.436,5.38.739,7.066-1.439,14.683-1.439Z" transform="translate(-194.805 -203.773)" fill="#3d3232"/>
    <path id="Tracé_60" data-name="Tracé 60" d="M459.862,230.96a31.245,31.245,0,0,1,9.006,1.27,15.184,15.184,0,0,0,5.144.8c3.681-.506,5.093-2.747,7.4-3.513a3.733,3.733,0,0,1,5.2,3.582,3.646,3.646,0,0,1-3.1,3.451,2.979,2.979,0,0,1-3.18-1.617,2.36,2.36,0,0,1,1.543-3.36.12.12,0,0,1,.13.177c-.352.657-.266,2.233,1.168,2.02s1.491-2.659-.688-2.6c-2.063.058-4,2.894-7.948,3.436-5.38.739-7.066-1.439-14.683-1.439Z" transform="translate(-408.736 -203.773)" fill="#3d3232"/>
    <path id="Tracé_61" data-name="Tracé 61" d="M251.931,301.11a.045.045,0,0,0-.09,0v.661a.045.045,0,0,0,.09,0Z" transform="translate(-223.842 -267.595)" fill="#3d3232"/>
    <path id="Tracé_62" data-name="Tracé 62" d="M250.857,306.875V306.5a.2.2,0,0,0-.4,0v.378a.2.2,0,0,0,.4,0m-.09-.189v.189a.109.109,0,0,1-.217,0V306.5a.109.109,0,0,1,.217,0Z" transform="translate(-222.615 -272.248)" fill="#3d3232"/>
    <path id="Tracé_63" data-name="Tracé 63" d="M251.931,311.75a.045.045,0,0,0-.09,0v.661a.045.045,0,0,0,.09,0Z" transform="translate(-223.842 -277.052)" fill="#3d3232"/>
    <path id="Tracé_64" data-name="Tracé 64" d="M250.857,317.515v-.378a.2.2,0,0,0-.4,0v.378a.2.2,0,0,0,.4,0m-.09-.189v.189a.109.109,0,0,1-.217,0v-.378a.109.109,0,0,1,.217,0Z" transform="translate(-222.615 -281.705)" fill="#3d3232"/>
    <path id="Tracé_65" data-name="Tracé 65" d="M251.931,322.39a.045.045,0,0,0-.09,0v.661a.045.045,0,0,0,.09,0Z" transform="translate(-223.842 -286.509)" fill="#3d3232"/>
    <path id="Tracé_66" data-name="Tracé 66" d="M250.857,328.155v-.378a.2.2,0,0,0-.4,0v.378a.2.2,0,0,0,.4,0m-.09-.189v.189a.109.109,0,0,1-.217,0v-.378a.109.109,0,0,1,.217,0Z" transform="translate(-222.615 -291.163)" fill="#3d3232"/>
    <path id="Tracé_67" data-name="Tracé 67" d="M251.931,333.03a.045.045,0,0,0-.09,0v.661a.045.045,0,0,0,.09,0Z" transform="translate(-223.842 -295.966)" fill="#3d3232"/>
    <path id="Tracé_68" data-name="Tracé 68" d="M250.857,338.795v-.378a.2.2,0,0,0-.4,0v.378a.2.2,0,0,0,.4,0m-.09-.189v.189a.109.109,0,0,1-.217,0v-.378a.109.109,0,0,1,.217,0Z" transform="translate(-222.615 -300.62)" fill="#3d3232"/>
    <path id="Tracé_69" data-name="Tracé 69" d="M251.931,343.67a.045.045,0,0,0-.09,0v.661a.045.045,0,0,0,.09,0Z" transform="translate(-223.842 -305.423)" fill="#3d3232"/>
    <path id="Tracé_70" data-name="Tracé 70" d="M250.857,349.435v-.378a.2.2,0,0,0-.4,0v.378a.2.2,0,0,0,.4,0m-.09-.189v.189a.109.109,0,0,1-.217,0v-.378a.109.109,0,0,1,.217,0Z" transform="translate(-222.615 -310.077)" fill="#3d3232"/>
    <path id="Tracé_71" data-name="Tracé 71" d="M251.931,354.309a.045.045,0,0,0-.09,0v.661a.045.045,0,0,0,.09,0Z" transform="translate(-223.842 -314.879)" fill="#3d3232"/>
    <path id="Tracé_72" data-name="Tracé 72" d="M250.857,360.075V359.7a.2.2,0,0,0-.4,0v.378a.2.2,0,0,0,.4,0m-.09-.189v.189a.109.109,0,0,1-.217,0V359.7a.109.109,0,0,1,.217,0Z" transform="translate(-222.615 -319.534)" fill="#3d3232"/>
    <path id="Tracé_73" data-name="Tracé 73" d="M251.931,364.95a.045.045,0,0,0-.09,0v.661a.045.045,0,0,0,.09,0Z" transform="translate(-223.842 -324.337)" fill="#3d3232"/>
    <path id="Tracé_74" data-name="Tracé 74" d="M250.857,370.716v-.378a.2.2,0,0,0-.4,0v.378a.2.2,0,0,0,.4,0m-.09-.189v.189a.109.109,0,0,1-.217,0v-.378a.109.109,0,0,1,.217,0Z" transform="translate(-222.615 -328.992)" fill="#3d3232"/>
    <path id="Tracé_75" data-name="Tracé 75" d="M251.931,375.59a.045.045,0,0,0-.09,0v.661a.045.045,0,0,0,.09,0Z" transform="translate(-223.842 -333.794)" fill="#3d3232"/>
    <path id="Tracé_76" data-name="Tracé 76" d="M250.857,381.356v-.378a.2.2,0,0,0-.4,0v.378a.2.2,0,0,0,.4,0m-.09-.189v.189a.109.109,0,0,1-.217,0v-.378a.109.109,0,0,1,.217,0Z" transform="translate(-222.615 -338.449)" fill="#3d3232"/>
    <path id="Tracé_77" data-name="Tracé 77" d="M251.931,386.23a.045.045,0,0,0-.09,0v.661a.045.045,0,0,0,.09,0Z" transform="translate(-223.842 -343.251)" fill="#3d3232"/>
    <path id="Tracé_78" data-name="Tracé 78" d="M250.857,392v-.378a.2.2,0,0,0-.4,0V392a.2.2,0,0,0,.4,0m-.09-.189V392a.109.109,0,0,1-.217,0v-.378a.109.109,0,0,1,.217,0Z" transform="translate(-222.615 -347.906)" fill="#3d3232"/>
    <path id="Tracé_79" data-name="Tracé 79" d="M251.931,396.87a.045.045,0,0,0-.09,0v.661a.045.045,0,0,0,.09,0Z" transform="translate(-223.842 -352.708)" fill="#3d3232"/>
    <path id="Tracé_80" data-name="Tracé 80" d="M250.857,402.636v-.378a.2.2,0,0,0-.4,0v.378a.2.2,0,0,0,.4,0m-.09-.189v.189a.109.109,0,0,1-.217,0v-.378a.109.109,0,0,1,.217,0Z" transform="translate(-222.615 -357.363)" fill="#3d3232"/>
    <path id="Tracé_81" data-name="Tracé 81" d="M251.931,407.51a.045.045,0,0,0-.09,0v.661a.045.045,0,0,0,.09,0Z" transform="translate(-223.842 -362.165)" fill="#3d3232"/>
    <path id="Tracé_82" data-name="Tracé 82" d="M250.857,413.276V412.9a.2.2,0,0,0-.4,0v.378a.2.2,0,0,0,.4,0m-.09-.189v.189a.109.109,0,0,1-.217,0V412.9a.109.109,0,0,1,.217,0Z" transform="translate(-222.615 -366.82)" fill="#3d3232"/>
    <path id="Tracé_83" data-name="Tracé 83" d="M251.931,418.151a.045.045,0,0,0-.09,0v.661a.045.045,0,0,0,.09,0Z" transform="translate(-223.842 -371.623)" fill="#3d3232"/>
    <path id="Tracé_84" data-name="Tracé 84" d="M250.857,423.916v-.378a.2.2,0,0,0-.4,0v.378a.2.2,0,0,0,.4,0m-.09-.189v.189a.109.109,0,0,1-.217,0v-.378a.109.109,0,0,1,.217,0Z" transform="translate(-222.615 -376.277)" fill="#3d3232"/>
    <path id="Tracé_85" data-name="Tracé 85" d="M251.931,428.791a.045.045,0,0,0-.09,0v.661a.045.045,0,0,0,.09,0Z" transform="translate(-223.842 -381.08)" fill="#3d3232"/>
    <path id="Tracé_86" data-name="Tracé 86" d="M250.857,434.556v-.378a.2.2,0,0,0-.4,0v.378a.2.2,0,0,0,.4,0m-.09-.189v.189a.109.109,0,0,1-.217,0v-.378a.109.109,0,0,1,.217,0Z" transform="translate(-222.615 -385.734)" fill="#3d3232"/>
    <path id="Tracé_87" data-name="Tracé 87" d="M251.93,439.43a.045.045,0,0,0-.09,0v.661a.045.045,0,0,0,.09,0Z" transform="translate(-223.841 -390.537)" fill="#3d3232"/>
    <path id="Tracé_88" data-name="Tracé 88" d="M250.857,445.2v-.378a.2.2,0,0,0-.4,0v.378a.2.2,0,0,0,.4,0m-.09-.189v.189a.109.109,0,0,1-.217,0v-.378a.109.109,0,0,1,.217,0Z" transform="translate(-222.615 -395.191)" fill="#3d3232"/>
    <path id="Tracé_89" data-name="Tracé 89" d="M251.93,450.071a.045.045,0,0,0-.09,0v.661a.045.045,0,0,0,.09,0Z" transform="translate(-223.841 -399.995)" fill="#3d3232"/>
    <path id="Tracé_90" data-name="Tracé 90" d="M250.857,455.836v-.378a.2.2,0,0,0-.4,0v.378a.2.2,0,0,0,.4,0m-.09-.189v.189a.109.109,0,0,1-.217,0v-.378a.109.109,0,0,1,.217,0Z" transform="translate(-222.615 -404.648)" fill="#3d3232"/>
    <path id="Tracé_91" data-name="Tracé 91" d="M251.93,460.711a.045.045,0,0,0-.09,0v.661a.045.045,0,0,0,.09,0Z" transform="translate(-223.841 -409.452)" fill="#3d3232"/>
    <path id="Tracé_92" data-name="Tracé 92" d="M250.857,466.476V466.1a.2.2,0,0,0-.4,0v.378a.2.2,0,0,0,.4,0m-.09-.189v.189a.109.109,0,0,1-.217,0V466.1a.109.109,0,0,1,.217,0Z" transform="translate(-222.615 -414.106)" fill="#3d3232"/>
    <path id="Tracé_93" data-name="Tracé 93" d="M251.93,471.351a.045.045,0,0,0-.09,0v.661a.045.045,0,0,0,.09,0Z" transform="translate(-223.841 -418.909)" fill="#3d3232"/>
    <path id="Tracé_94" data-name="Tracé 94" d="M250.857,477.116v-.378a.2.2,0,0,0-.4,0v.378a.2.2,0,0,0,.4,0m-.09-.189v.189a.109.109,0,0,1-.217,0v-.378a.109.109,0,0,1,.217,0Z" transform="translate(-222.615 -423.563)" fill="#3d3232"/>
    <path id="Tracé_95" data-name="Tracé 95" d="M251.93,481.99a.045.045,0,0,0-.09,0v.661a.045.045,0,0,0,.09,0Z" transform="translate(-223.841 -428.365)" fill="#3d3232"/>
    <path id="Tracé_96" data-name="Tracé 96" d="M250.857,487.756v-.378a.2.2,0,0,0-.4,0v.378a.2.2,0,0,0,.4,0m-.09-.189v.189a.109.109,0,0,1-.217,0v-.378a.109.109,0,0,1,.217,0Z" transform="translate(-222.615 -433.02)" fill="#3d3232"/>
    <path id="Tracé_97" data-name="Tracé 97" d="M251.93,492.631a.045.045,0,0,0-.09,0v.661a.045.045,0,0,0,.09,0Z" transform="translate(-223.841 -437.823)" fill="#3d3232"/>
    <path id="Tracé_98" data-name="Tracé 98" d="M250.857,498.4v-.378a.2.2,0,0,0-.4,0v.378a.2.2,0,0,0,.4,0m-.09-.189v.189a.109.109,0,0,1-.217,0v-.378a.109.109,0,0,1,.217,0Z" transform="translate(-222.615 -442.477)" fill="#3d3232"/>
    <path id="Tracé_99" data-name="Tracé 99" d="M181.339,502.708a.572.572,0,1,0-1.075.271H171.3v-.748a.095.095,0,1,0-.189,0v.748H162.14a.572.572,0,1,0-.78.229c1.376,1.238,5.46,1.946,9.842,1.946s8.466-.708,9.842-1.946a.572.572,0,0,0,.3-.5m-.955,0a.383.383,0,1,1,.653.271h-.54a.382.382,0,0,1-.113-.271m-18.748-.383a.382.382,0,0,1,.27.654h-.54a.383.383,0,0,1,.27-.654" transform="translate(-143.158 -446.31)" fill="#3d3232"/>
    <path id="Tracé_100" data-name="Tracé 100" d="M244.289,306.192a.2.2,0,0,0-.257.106l-.071.175-.071.175a.2.2,0,0,0,.368.149l.071-.175.071-.175a.2.2,0,0,0-.11-.255m-.115.572a.109.109,0,0,1-.2-.082l.071-.175.071-.175a.109.109,0,0,1,.2.082l-.071.175Z" transform="translate(-216.762 -272.137)" fill="#3d3232"/>
    <path id="Tracé_101" data-name="Tracé 101" d="M246.864,302.1a.045.045,0,0,1-.083-.034l.249-.612a.045.045,0,0,1,.083.034Z" transform="translate(-219.342 -267.917)" fill="#3d3232"/>
    <path id="Tracé_102" data-name="Tracé 102" d="M166.757,499.25a.045.045,0,0,1-.083-.034l.249-.612a.045.045,0,0,1,.083.034Z" transform="translate(-148.141 -443.147)" fill="#3d3232"/>
    <path id="Tracé_103" data-name="Tracé 103" d="M168.188,493.482a.2.2,0,0,0-.257.106l-.071.175-.071.175a.2.2,0,0,0,.368.149l.071-.175.071-.175a.2.2,0,0,0-.11-.255m-.115.572a.109.109,0,0,1-.2-.082l.071-.175.071-.175a.109.109,0,0,1,.2.082l-.071.175Z" transform="translate(-149.122 -438.605)" fill="#3d3232"/>
    <path id="Tracé_104" data-name="Tracé 104" d="M170.762,489.392a.045.045,0,0,1-.083-.034l.249-.612a.045.045,0,0,1,.083.034Z" transform="translate(-151.7 -434.385)" fill="#3d3232"/>
    <path id="Tracé_105" data-name="Tracé 105" d="M172.193,483.624a.2.2,0,0,0-.257.106l-.071.175-.071.175a.2.2,0,0,0,.368.149l.071-.175.071-.175a.2.2,0,0,0-.11-.255m-.115.572a.109.109,0,0,1-.2-.082l.071-.175.071-.175a.109.109,0,0,1,.2.082l-.071.175Z" transform="translate(-152.681 -429.844)" fill="#3d3232"/>
    <path id="Tracé_106" data-name="Tracé 106" d="M174.768,479.535a.045.045,0,0,1-.083-.034l.249-.612a.045.045,0,0,1,.083.034Z" transform="translate(-155.261 -425.624)" fill="#3d3232"/>
    <path id="Tracé_107" data-name="Tracé 107" d="M176.2,473.767a.2.2,0,0,0-.257.106l-.071.175-.071.175a.2.2,0,0,0,.368.149l.071-.175.071-.175a.2.2,0,0,0-.111-.255m-.115.572a.109.109,0,0,1-.2-.082l.071-.175.071-.175a.109.109,0,0,1,.2.082l-.071.175Z" transform="translate(-156.242 -421.082)" fill="#3d3232"/>
    <path id="Tracé_108" data-name="Tracé 108" d="M178.773,469.678a.045.045,0,0,1-.083-.034l.249-.612a.045.045,0,0,1,.083.034Z" transform="translate(-158.821 -416.862)" fill="#3d3232"/>
    <path id="Tracé_109" data-name="Tracé 109" d="M180.2,463.91a.2.2,0,0,0-.257.106l-.071.175-.071.175a.2.2,0,0,0,.368.149l.071-.175.071-.175a.2.2,0,0,0-.11-.255m-.115.572a.109.109,0,0,1-.2-.082l.071-.175.071-.175a.109.109,0,0,1,.2.082l-.071.175Z" transform="translate(-159.802 -412.321)" fill="#3d3232"/>
    <path id="Tracé_110" data-name="Tracé 110" d="M182.778,459.82a.045.045,0,0,1-.083-.034l.249-.612a.045.045,0,0,1,.083.034Z" transform="translate(-162.38 -408.1)" fill="#3d3232"/>
    <path id="Tracé_111" data-name="Tracé 111" d="M184.21,454.052a.2.2,0,0,0-.257.106l-.071.175-.071.175a.2.2,0,0,0,.368.149l.071-.175.071-.175a.2.2,0,0,0-.111-.255m-.115.572a.109.109,0,0,1-.2-.082l.071-.175.071-.175a.109.109,0,0,1,.2.082l-.071.175Z" transform="translate(-163.362 -403.559)" fill="#3d3232"/>
    <path id="Tracé_112" data-name="Tracé 112" d="M186.784,449.963a.045.045,0,0,1-.083-.034l.249-.612a.045.045,0,0,1,.083.034Z" transform="translate(-165.941 -399.339)" fill="#3d3232"/>
    <path id="Tracé_113" data-name="Tracé 113" d="M188.215,444.2a.2.2,0,0,0-.257.106l-.071.175-.071.175a.2.2,0,0,0,.368.149l.071-.175.071-.175a.2.2,0,0,0-.11-.255m-.115.572a.109.109,0,0,1-.2-.082l.071-.175.071-.175a.109.109,0,0,1,.2.082l-.071.175Z" transform="translate(-166.922 -394.798)" fill="#3d3232"/>
    <path id="Tracé_114" data-name="Tracé 114" d="M190.789,440.105a.045.045,0,0,1-.083-.034l.249-.612a.045.045,0,0,1,.083.034Z" transform="translate(-169.501 -390.577)" fill="#3d3232"/>
    <path id="Tracé_115" data-name="Tracé 115" d="M192.22,434.338a.2.2,0,0,0-.257.106l-.071.175-.071.175a.2.2,0,0,0,.368.149l.071-.175.071-.175a.2.2,0,0,0-.11-.255m-.115.572a.109.109,0,0,1-.2-.082l.071-.175.071-.175a.109.109,0,0,1,.2.082l-.071.175Z" transform="translate(-170.482 -386.037)" fill="#3d3232"/>
    <path id="Tracé_116" data-name="Tracé 116" d="M194.794,430.248a.045.045,0,0,1-.083-.034l.249-.612a.045.045,0,0,1,.083.034Z" transform="translate(-173.061 -381.816)" fill="#3d3232"/>
    <path id="Tracé_117" data-name="Tracé 117" d="M196.225,424.48a.2.2,0,0,0-.257.106l-.071.175-.071.175a.2.2,0,0,0,.368.149l.071-.175.071-.175a.2.2,0,0,0-.11-.255m-.115.572a.109.109,0,0,1-.2-.082l.071-.175.071-.175a.109.109,0,0,1,.2.082l-.071.175Z" transform="translate(-174.042 -377.275)" fill="#3d3232"/>
    <path id="Tracé_118" data-name="Tracé 118" d="M198.8,420.391a.045.045,0,0,1-.083-.034l.249-.612a.045.045,0,0,1,.083.034Z" transform="translate(-176.621 -373.055)" fill="#3d3232"/>
    <path id="Tracé_119" data-name="Tracé 119" d="M200.231,414.623a.2.2,0,0,0-.257.106l-.071.175-.071.175a.2.2,0,0,0,.368.149l.071-.175.071-.175a.2.2,0,0,0-.11-.255m-.115.572a.109.109,0,0,1-.2-.082l.071-.175.071-.175a.109.109,0,0,1,.2.082l-.071.175Z" transform="translate(-177.602 -368.514)" fill="#3d3232"/>
    <path id="Tracé_120" data-name="Tracé 120" d="M202.8,410.533a.045.045,0,0,1-.083-.034l.249-.612a.045.045,0,0,1,.083.034Z" transform="translate(-180.181 -364.293)" fill="#3d3232"/>
    <path id="Tracé_121" data-name="Tracé 121" d="M204.236,404.765a.2.2,0,0,0-.257.106l-.071.175-.071.175a.2.2,0,0,0,.368.149l.071-.175.071-.175a.2.2,0,0,0-.11-.255m-.115.572a.109.109,0,0,1-.2-.082l.071-.175.071-.175a.109.109,0,0,1,.2.082l-.071.175Z" transform="translate(-181.162 -359.752)" fill="#3d3232"/>
    <path id="Tracé_122" data-name="Tracé 122" d="M206.81,400.676a.045.045,0,0,1-.083-.034l.249-.612a.045.045,0,0,1,.083.034Z" transform="translate(-183.741 -355.532)" fill="#3d3232"/>
    <path id="Tracé_123" data-name="Tracé 123" d="M208.241,394.908a.2.2,0,0,0-.257.106l-.071.175-.071.175a.2.2,0,0,0,.368.149l.071-.175.071-.175a.2.2,0,0,0-.11-.255m-.115.572a.109.109,0,0,1-.2-.082l.071-.175.071-.175a.109.109,0,0,1,.2.082l-.071.175Z" transform="translate(-184.722 -350.99)" fill="#3d3232"/>
    <path id="Tracé_124" data-name="Tracé 124" d="M210.816,390.819a.045.045,0,0,1-.083-.034l.249-.612a.045.045,0,0,1,.083.034Z" transform="translate(-187.301 -346.77)" fill="#3d3232"/>
    <path id="Tracé_125" data-name="Tracé 125" d="M212.247,385.051a.2.2,0,0,0-.257.106l-.071.175-.071.175a.2.2,0,0,0,.368.149l.071-.175.071-.175a.2.2,0,0,0-.111-.255m-.115.572a.109.109,0,0,1-.2-.082l.071-.175.071-.175a.109.109,0,0,1,.2.082l-.071.175Z" transform="translate(-188.282 -342.229)" fill="#3d3232"/>
    <path id="Tracé_126" data-name="Tracé 126" d="M214.821,380.961a.045.045,0,0,1-.083-.034l.249-.612a.045.045,0,0,1,.083.034Z" transform="translate(-190.861 -338.009)" fill="#3d3232"/>
    <path id="Tracé_127" data-name="Tracé 127" d="M216.252,375.193a.2.2,0,0,0-.257.106l-.071.175-.071.175a.2.2,0,0,0,.368.149l.071-.175.071-.175a.2.2,0,0,0-.11-.255m-.115.572a.109.109,0,0,1-.2-.082l.071-.175.071-.175a.109.109,0,0,1,.2.082l-.071.175Z" transform="translate(-191.842 -333.467)" fill="#3d3232"/>
    <path id="Tracé_128" data-name="Tracé 128" d="M218.826,371.1a.045.045,0,0,1-.083-.034l.249-.612a.045.045,0,0,1,.083.034Z" transform="translate(-194.421 -329.248)" fill="#3d3232"/>
    <path id="Tracé_129" data-name="Tracé 129" d="M220.257,365.336a.2.2,0,0,0-.257.106l-.071.175-.071.175a.2.2,0,0,0,.368.149l.071-.175.071-.175a.2.2,0,0,0-.11-.255m-.115.572a.109.109,0,0,1-.2-.082l.071-.175.071-.175a.109.109,0,0,1,.2.082l-.071.175Z" transform="translate(-195.402 -324.706)" fill="#3d3232"/>
    <path id="Tracé_130" data-name="Tracé 130" d="M222.832,361.246a.045.045,0,0,1-.083-.034L223,360.6a.045.045,0,0,1,.083.034Z" transform="translate(-197.981 -320.486)" fill="#3d3232"/>
    <path id="Tracé_131" data-name="Tracé 131" d="M224.263,355.479a.2.2,0,0,0-.257.106l-.071.175-.071.175a.2.2,0,0,0,.368.149l.071-.175.071-.175a.2.2,0,0,0-.11-.255m-.115.572a.109.109,0,0,1-.2-.082l.071-.175.071-.175a.109.109,0,0,1,.2.082l-.071.175Z" transform="translate(-198.962 -315.945)" fill="#3d3232"/>
    <path id="Tracé_132" data-name="Tracé 132" d="M226.837,351.389a.045.045,0,0,1-.083-.034l.249-.612a.045.045,0,0,1,.083.034Z" transform="translate(-201.541 -311.724)" fill="#3d3232"/>
    <path id="Tracé_133" data-name="Tracé 133" d="M228.268,345.621a.2.2,0,0,0-.257.106l-.071.175-.071.175a.2.2,0,0,0,.368.149l.071-.175.071-.175a.2.2,0,0,0-.11-.255m-.115.572a.109.109,0,0,1-.2-.082l.071-.175.071-.175a.109.109,0,0,1,.2.082l-.071.175Z" transform="translate(-202.522 -307.183)" fill="#3d3232"/>
    <path id="Tracé_134" data-name="Tracé 134" d="M230.842,341.532a.045.045,0,0,1-.083-.034l.249-.612a.045.045,0,0,1,.083.034Z" transform="translate(-205.101 -302.963)" fill="#3d3232"/>
    <path id="Tracé_135" data-name="Tracé 135" d="M232.273,335.764a.2.2,0,0,0-.257.106l-.071.175-.071.175a.2.2,0,0,0,.368.149l.071-.175.071-.175a.2.2,0,0,0-.11-.255m-.115.572a.109.109,0,0,1-.2-.082l.071-.175.071-.175a.109.109,0,0,1,.2.082l-.071.175Z" transform="translate(-206.082 -298.422)" fill="#3d3232"/>
    <path id="Tracé_136" data-name="Tracé 136" d="M234.848,331.674a.045.045,0,0,1-.083-.034l.249-.612a.045.045,0,0,1,.083.034Z" transform="translate(-208.661 -294.201)" fill="#3d3232"/>
    <path id="Tracé_137" data-name="Tracé 137" d="M236.279,325.907a.2.2,0,0,0-.257.106l-.071.175-.071.175a.2.2,0,0,0,.368.149l.071-.175.071-.175a.2.2,0,0,0-.11-.255m-.115.572a.109.109,0,0,1-.2-.082l.071-.175.071-.175a.109.109,0,0,1,.2.082l-.071.175Z" transform="translate(-209.642 -289.661)" fill="#3d3232"/>
    <path id="Tracé_138" data-name="Tracé 138" d="M238.853,321.817a.045.045,0,0,1-.083-.034l.249-.612a.045.045,0,0,1,.083.034Z" transform="translate(-212.221 -285.44)" fill="#3d3232"/>
    <path id="Tracé_139" data-name="Tracé 139" d="M240.284,316.049a.2.2,0,0,0-.257.106l-.071.175-.071.175a.2.2,0,0,0,.368.149l.071-.175.071-.175a.2.2,0,0,0-.11-.255m-.115.572a.109.109,0,0,1-.2-.082l.071-.175.071-.175a.109.109,0,0,1,.2.082l-.071.175Z" transform="translate(-213.202 -280.899)" fill="#3d3232"/>
    <path id="Tracé_140" data-name="Tracé 140" d="M242.858,311.96a.045.045,0,0,1-.083-.034l.249-.612a.045.045,0,0,1,.083.034Z" transform="translate(-215.781 -276.679)" fill="#3d3232"/>
    <path id="Tracé_141" data-name="Tracé 141" d="M332.4,493.938l-.071-.175-.071-.175a.2.2,0,0,0-.368.149l.071.175.071.175a.2.2,0,0,0,.368-.149m-.154-.141.071.175a.109.109,0,0,1-.2.082l-.071-.175-.071-.175a.109.109,0,0,1,.2-.082Z" transform="translate(-294.978 -438.605)" fill="#3d3232"/>
    <path id="Tracé_142" data-name="Tracé 142" d="M334.862,498.6a.045.045,0,0,0-.083.034l.249.612a.045.045,0,0,0,.083-.034Z" transform="translate(-297.556 -443.147)" fill="#3d3232"/>
    <path id="Tracé_143" data-name="Tracé 143" d="M254.756,301.457a.045.045,0,0,0-.083.034l.249.612a.045.045,0,0,0,.083-.034Z" transform="translate(-226.356 -267.918)" fill="#3d3232"/>
    <path id="Tracé_144" data-name="Tracé 144" d="M256.3,306.648l-.071-.175-.071-.175a.2.2,0,0,0-.368.149l.071.175.071.175a.2.2,0,0,0,.368-.149m-.154-.141.071.175a.109.109,0,0,1-.2.082l-.071-.175-.071-.175a.109.109,0,0,1,.2-.082Z" transform="translate(-227.337 -272.137)" fill="#3d3232"/>
    <path id="Tracé_145" data-name="Tracé 145" d="M258.761,311.314a.045.045,0,0,0-.083.034l.249.612a.045.045,0,0,0,.083-.034Z" transform="translate(-229.916 -276.679)" fill="#3d3232"/>
    <path id="Tracé_146" data-name="Tracé 146" d="M260.3,316.505l-.071-.175-.071-.175a.2.2,0,0,0-.368.149l.071.175.071.175a.2.2,0,0,0,.368-.149m-.154-.141.071.175a.109.109,0,0,1-.2.082l-.071-.175-.071-.175a.109.109,0,0,1,.2-.082Z" transform="translate(-230.897 -280.899)" fill="#3d3232"/>
    <path id="Tracé_147" data-name="Tracé 147" d="M262.766,321.172a.045.045,0,0,0-.083.034l.249.612a.045.045,0,0,0,.083-.034Z" transform="translate(-233.476 -285.441)" fill="#3d3232"/>
    <path id="Tracé_148" data-name="Tracé 148" d="M264.307,326.364l-.071-.175-.071-.175a.2.2,0,0,0-.368.149l.071.175.071.175a.2.2,0,0,0,.368-.149m-.154-.141.071.175a.109.109,0,0,1-.2.082l-.071-.175-.071-.175a.109.109,0,0,1,.2-.082Z" transform="translate(-234.457 -289.661)" fill="#3d3232"/>
    <path id="Tracé_149" data-name="Tracé 149" d="M266.771,331.029a.045.045,0,0,0-.083.034l.249.612a.045.045,0,0,0,.083-.034Z" transform="translate(-237.035 -294.202)" fill="#3d3232"/>
    <path id="Tracé_150" data-name="Tracé 150" d="M268.313,336.22l-.071-.175-.071-.175a.2.2,0,0,0-.368.149l.071.175.071.175a.2.2,0,0,0,.368-.149m-.154-.141.071.175a.109.109,0,0,1-.2.082l-.071-.175-.071-.175a.109.109,0,0,1,.2-.082Z" transform="translate(-238.017 -298.422)" fill="#3d3232"/>
    <path id="Tracé_151" data-name="Tracé 151" d="M270.777,340.886a.045.045,0,0,0-.083.034l.249.612a.045.045,0,0,0,.083-.034Z" transform="translate(-240.596 -302.963)" fill="#3d3232"/>
    <path id="Tracé_152" data-name="Tracé 152" d="M272.318,346.077l-.071-.175-.071-.175a.2.2,0,0,0-.368.149l.071.175.071.175a.2.2,0,0,0,.368-.149m-.154-.141.071.175a.109.109,0,0,1-.2.082l-.071-.175-.071-.175a.109.109,0,0,1,.2-.082Z" transform="translate(-241.577 -307.183)" fill="#3d3232"/>
    <path id="Tracé_153" data-name="Tracé 153" d="M274.782,350.744a.045.045,0,0,0-.083.034l.249.612a.045.045,0,0,0,.083-.034Z" transform="translate(-244.156 -311.725)" fill="#3d3232"/>
    <path id="Tracé_154" data-name="Tracé 154" d="M276.323,355.935l-.071-.175-.071-.175a.2.2,0,0,0-.368.149l.071.175.071.175a.2.2,0,0,0,.368-.149m-.154-.141.071.175a.109.109,0,0,1-.2.082l-.071-.175-.071-.175a.109.109,0,0,1,.2-.082Z" transform="translate(-245.137 -315.945)" fill="#3d3232"/>
    <path id="Tracé_155" data-name="Tracé 155" d="M278.788,360.6a.045.045,0,0,0-.083.034l.249.612a.045.045,0,0,0,.083-.034Z" transform="translate(-247.716 -320.486)" fill="#3d3232"/>
    <path id="Tracé_156" data-name="Tracé 156" d="M280.329,365.792l-.071-.175-.071-.175a.2.2,0,0,0-.368.149l.071.175.071.175a.2.2,0,0,0,.368-.149m-.154-.141.071.175a.109.109,0,0,1-.2.082l-.071-.175-.071-.175a.109.109,0,0,1,.2-.082Z" transform="translate(-248.697 -324.706)" fill="#3d3232"/>
    <path id="Tracé_157" data-name="Tracé 157" d="M282.793,370.458a.045.045,0,0,0-.083.034l.249.612a.045.045,0,0,0,.083-.034Z" transform="translate(-251.276 -329.248)" fill="#3d3232"/>
    <path id="Tracé_158" data-name="Tracé 158" d="M284.334,375.65l-.071-.175-.071-.175a.2.2,0,0,0-.368.149l.071.175.071.175a.2.2,0,0,0,.368-.149m-.154-.141.071.175a.109.109,0,0,1-.2.082l-.071-.175-.071-.175a.109.109,0,0,1,.2-.082Z" transform="translate(-252.257 -333.468)" fill="#3d3232"/>
    <path id="Tracé_159" data-name="Tracé 159" d="M286.8,380.316a.045.045,0,0,0-.083.034l.249.612a.045.045,0,0,0,.083-.034Z" transform="translate(-254.836 -338.01)" fill="#3d3232"/>
    <path id="Tracé_160" data-name="Tracé 160" d="M288.339,385.507l-.071-.175-.071-.175a.2.2,0,0,0-.368.149l.071.175.071.175a.2.2,0,0,0,.368-.149m-.154-.141.071.175a.109.109,0,0,1-.2.082l-.071-.175-.071-.175a.109.109,0,0,1,.2-.082Z" transform="translate(-255.817 -342.229)" fill="#3d3232"/>
    <path id="Tracé_161" data-name="Tracé 161" d="M290.8,390.173a.045.045,0,0,0-.083.034l.249.612a.045.045,0,0,0,.083-.034Z" transform="translate(-258.396 -346.771)" fill="#3d3232"/>
    <path id="Tracé_162" data-name="Tracé 162" d="M292.345,395.364l-.071-.175-.071-.175a.2.2,0,0,0-.368.149l.071.175.071.175a.2.2,0,0,0,.368-.149m-.154-.141.071.175a.109.109,0,0,1-.2.082l-.071-.175-.071-.175a.109.109,0,0,1,.2-.082Z" transform="translate(-259.378 -350.99)" fill="#3d3232"/>
    <path id="Tracé_163" data-name="Tracé 163" d="M294.809,400.03a.045.045,0,0,0-.083.034l.249.612a.045.045,0,0,0,.083-.034Z" transform="translate(-261.956 -355.532)" fill="#3d3232"/>
    <path id="Tracé_164" data-name="Tracé 164" d="M296.35,405.222l-.071-.175-.071-.175a.2.2,0,0,0-.368.149l.071.175.071.175a.2.2,0,0,0,.368-.149m-.154-.141.071.175a.109.109,0,0,1-.2.082l-.071-.175-.071-.175a.109.109,0,0,1,.2-.082Z" transform="translate(-262.937 -359.752)" fill="#3d3232"/>
    <path id="Tracé_165" data-name="Tracé 165" d="M298.814,409.888a.045.045,0,0,0-.083.034l.249.612a.045.045,0,0,0,.083-.034Z" transform="translate(-265.516 -364.294)" fill="#3d3232"/>
    <path id="Tracé_166" data-name="Tracé 166" d="M300.355,415.079l-.071-.175-.071-.175a.2.2,0,0,0-.368.149l.071.175.071.175a.2.2,0,0,0,.368-.149m-.154-.141.071.175a.109.109,0,0,1-.2.082L300,415.02l-.071-.175a.109.109,0,0,1,.2-.082Z" transform="translate(-266.497 -368.514)" fill="#3d3232"/>
    <path id="Tracé_167" data-name="Tracé 167" d="M302.819,419.745a.045.045,0,0,0-.083.034l.249.612a.045.045,0,0,0,.083-.034Z" transform="translate(-269.076 -373.055)" fill="#3d3232"/>
    <path id="Tracé_168" data-name="Tracé 168" d="M304.361,424.936l-.071-.175-.071-.175a.2.2,0,0,0-.368.149l.071.175.071.175a.2.2,0,0,0,.368-.149m-.154-.141.071.175a.109.109,0,0,1-.2.082l-.071-.175-.071-.175a.109.109,0,0,1,.2-.082Z" transform="translate(-270.058 -377.275)" fill="#3d3232"/>
    <path id="Tracé_169" data-name="Tracé 169" d="M306.825,429.6a.045.045,0,0,0-.083.034l.249.612a.045.045,0,0,0,.083-.034Z" transform="translate(-272.636 -381.816)" fill="#3d3232"/>
    <path id="Tracé_170" data-name="Tracé 170" d="M308.366,434.794l-.071-.175-.071-.175a.2.2,0,0,0-.368.149l.071.175.071.175a.2.2,0,0,0,.368-.149m-.154-.141.071.175a.109.109,0,0,1-.2.082l-.071-.175-.071-.175a.109.109,0,0,1,.2-.082Z" transform="translate(-273.617 -386.037)" fill="#3d3232"/>
    <path id="Tracé_171" data-name="Tracé 171" d="M310.83,439.46a.045.045,0,0,0-.083.034l.249.612a.045.045,0,0,0,.083-.034Z" transform="translate(-276.196 -390.578)" fill="#3d3232"/>
    <path id="Tracé_172" data-name="Tracé 172" d="M312.371,444.651l-.071-.175-.071-.175a.2.2,0,0,0-.368.149l.071.175.071.175a.2.2,0,0,0,.368-.149m-.154-.141.071.175a.109.109,0,0,1-.2.082l-.071-.175-.071-.175a.109.109,0,0,1,.2-.082Z" transform="translate(-277.177 -394.798)" fill="#3d3232"/>
    <path id="Tracé_173" data-name="Tracé 173" d="M314.835,449.317a.045.045,0,0,0-.083.034l.249.612a.045.045,0,0,0,.083-.034Z" transform="translate(-279.756 -399.339)" fill="#3d3232"/>
    <path id="Tracé_174" data-name="Tracé 174" d="M316.377,454.509l-.071-.175-.071-.175a.2.2,0,0,0-.368.149l.071.175.071.175a.2.2,0,0,0,.368-.149m-.154-.141.071.175a.109.109,0,0,1-.2.082l-.071-.175-.071-.175a.109.109,0,0,1,.2-.082Z" transform="translate(-280.738 -403.56)" fill="#3d3232"/>
    <path id="Tracé_175" data-name="Tracé 175" d="M318.841,459.175a.045.045,0,0,0-.083.034l.249.612a.045.045,0,0,0,.083-.034Z" transform="translate(-283.316 -408.101)" fill="#3d3232"/>
    <path id="Tracé_176" data-name="Tracé 176" d="M320.382,464.366l-.071-.175-.071-.175a.2.2,0,0,0-.368.149l.071.175.071.175a.2.2,0,0,0,.368-.149m-.154-.141.071.175a.109.109,0,0,1-.2.082l-.071-.175-.071-.175a.109.109,0,0,1,.2-.082Z" transform="translate(-284.297 -412.321)" fill="#3d3232"/>
    <path id="Tracé_177" data-name="Tracé 177" d="M322.846,469.032a.045.045,0,0,0-.083.034l.249.612a.045.045,0,0,0,.083-.034Z" transform="translate(-286.876 -416.862)" fill="#3d3232"/>
    <path id="Tracé_178" data-name="Tracé 178" d="M324.387,474.223l-.071-.175-.071-.175a.2.2,0,0,0-.368.149l.071.175.071.175a.2.2,0,0,0,.368-.149m-.154-.141.071.175a.109.109,0,0,1-.2.082l-.071-.175-.071-.175a.109.109,0,0,1,.2-.082Z" transform="translate(-287.857 -421.082)" fill="#3d3232"/>
    <path id="Tracé_179" data-name="Tracé 179" d="M326.851,478.889a.045.045,0,0,0-.083.034l.249.612a.045.045,0,0,0,.083-.034Z" transform="translate(-290.436 -425.624)" fill="#3d3232"/>
    <path id="Tracé_180" data-name="Tracé 180" d="M328.392,484.081l-.071-.175-.071-.175a.2.2,0,0,0-.368.149l.071.175.071.175a.2.2,0,0,0,.368-.149m-.154-.141.071.175a.109.109,0,0,1-.2.082l-.071-.175-.071-.175a.109.109,0,0,1,.2-.082Z" transform="translate(-291.417 -429.844)" fill="#3d3232"/>
    <path id="Tracé_181" data-name="Tracé 181" d="M330.857,488.747a.045.045,0,0,0-.083.034l.249.612a.045.045,0,0,0,.083-.034Z" transform="translate(-293.996 -434.386)" fill="#3d3232"/>
    <path id="Tracé_182" data-name="Tracé 182" d="M249.6,265.013a.331.331,0,0,0-.331.331v3.976a.331.331,0,0,0,.661,0v-3.976a.331.331,0,0,0-.331-.331" transform="translate(-221.557 -235.55)" fill="#3d3232"/>
    <path id="Tracé_183" data-name="Tracé 183" d="M667.164,301.11a.045.045,0,0,0-.09,0v.661a.045.045,0,0,0,.09,0Z" transform="translate(-592.911 -267.595)" fill="#3d3232"/>
    <path id="Tracé_184" data-name="Tracé 184" d="M666.091,306.875V306.5a.2.2,0,0,0-.4,0v.378a.2.2,0,0,0,.4,0m-.09-.189v.189a.109.109,0,0,1-.217,0V306.5a.109.109,0,0,1,.217,0Z" transform="translate(-591.684 -272.248)" fill="#3d3232"/>
    <path id="Tracé_185" data-name="Tracé 185" d="M667.164,311.75a.045.045,0,0,0-.09,0v.661a.045.045,0,0,0,.09,0Z" transform="translate(-592.911 -277.052)" fill="#3d3232"/>
    <path id="Tracé_186" data-name="Tracé 186" d="M666.091,317.515v-.378a.2.2,0,0,0-.4,0v.378a.2.2,0,0,0,.4,0m-.09-.189v.189a.109.109,0,0,1-.217,0v-.378a.109.109,0,0,1,.217,0Z" transform="translate(-591.684 -281.705)" fill="#3d3232"/>
    <path id="Tracé_187" data-name="Tracé 187" d="M667.164,322.39a.045.045,0,0,0-.09,0v.661a.045.045,0,0,0,.09,0Z" transform="translate(-592.911 -286.509)" fill="#3d3232"/>
    <path id="Tracé_188" data-name="Tracé 188" d="M666.091,328.155v-.378a.2.2,0,0,0-.4,0v.378a.2.2,0,0,0,.4,0m-.09-.189v.189a.109.109,0,0,1-.217,0v-.378a.109.109,0,0,1,.217,0Z" transform="translate(-591.684 -291.163)" fill="#3d3232"/>
    <path id="Tracé_189" data-name="Tracé 189" d="M667.165,333.03a.045.045,0,0,0-.09,0v.661a.045.045,0,0,0,.09,0Z" transform="translate(-592.912 -295.966)" fill="#3d3232"/>
    <path id="Tracé_190" data-name="Tracé 190" d="M666.091,338.795v-.378a.2.2,0,0,0-.4,0v.378a.2.2,0,0,0,.4,0m-.09-.189v.189a.109.109,0,0,1-.217,0v-.378a.109.109,0,0,1,.217,0Z" transform="translate(-591.684 -300.62)" fill="#3d3232"/>
    <path id="Tracé_191" data-name="Tracé 191" d="M667.164,343.67a.045.045,0,0,0-.09,0v.661a.045.045,0,0,0,.09,0Z" transform="translate(-592.911 -305.423)" fill="#3d3232"/>
    <path id="Tracé_192" data-name="Tracé 192" d="M666.091,349.435v-.378a.2.2,0,0,0-.4,0v.378a.2.2,0,0,0,.4,0m-.09-.189v.189a.109.109,0,0,1-.217,0v-.378a.109.109,0,0,1,.217,0Z" transform="translate(-591.684 -310.077)" fill="#3d3232"/>
    <path id="Tracé_193" data-name="Tracé 193" d="M667.164,354.309a.045.045,0,0,0-.09,0v.661a.045.045,0,0,0,.09,0Z" transform="translate(-592.911 -314.879)" fill="#3d3232"/>
    <path id="Tracé_194" data-name="Tracé 194" d="M666.091,360.075V359.7a.2.2,0,0,0-.4,0v.378a.2.2,0,0,0,.4,0m-.09-.189v.189a.109.109,0,0,1-.217,0V359.7a.109.109,0,0,1,.217,0Z" transform="translate(-591.684 -319.534)" fill="#3d3232"/>
    <path id="Tracé_195" data-name="Tracé 195" d="M667.165,364.95a.045.045,0,0,0-.09,0v.661a.045.045,0,0,0,.09,0Z" transform="translate(-592.912 -324.337)" fill="#3d3232"/>
    <path id="Tracé_196" data-name="Tracé 196" d="M666.091,370.716v-.378a.2.2,0,0,0-.4,0v.378a.2.2,0,0,0,.4,0m-.09-.189v.189a.109.109,0,0,1-.217,0v-.378a.109.109,0,0,1,.217,0Z" transform="translate(-591.684 -328.992)" fill="#3d3232"/>
    <path id="Tracé_197" data-name="Tracé 197" d="M667.165,375.59a.045.045,0,0,0-.09,0v.661a.045.045,0,0,0,.09,0Z" transform="translate(-592.912 -333.794)" fill="#3d3232"/>
    <path id="Tracé_198" data-name="Tracé 198" d="M666.091,381.356v-.378a.2.2,0,0,0-.4,0v.378a.2.2,0,0,0,.4,0m-.09-.189v.189a.109.109,0,0,1-.217,0v-.378a.109.109,0,0,1,.217,0Z" transform="translate(-591.684 -338.449)" fill="#3d3232"/>
    <path id="Tracé_199" data-name="Tracé 199" d="M667.165,386.23a.045.045,0,0,0-.09,0v.661a.045.045,0,0,0,.09,0Z" transform="translate(-592.912 -343.251)" fill="#3d3232"/>
    <path id="Tracé_200" data-name="Tracé 200" d="M666.091,392v-.378a.2.2,0,0,0-.4,0V392a.2.2,0,0,0,.4,0m-.09-.189V392a.109.109,0,0,1-.217,0v-.378a.109.109,0,0,1,.217,0Z" transform="translate(-591.684 -347.906)" fill="#3d3232"/>
    <path id="Tracé_201" data-name="Tracé 201" d="M667.165,396.87a.045.045,0,0,0-.09,0v.661a.045.045,0,0,0,.09,0Z" transform="translate(-592.912 -352.708)" fill="#3d3232"/>
    <path id="Tracé_202" data-name="Tracé 202" d="M666.091,402.636v-.378a.2.2,0,0,0-.4,0v.378a.2.2,0,0,0,.4,0m-.09-.189v.189a.109.109,0,0,1-.217,0v-.378a.109.109,0,0,1,.217,0Z" transform="translate(-591.684 -357.363)" fill="#3d3232"/>
    <path id="Tracé_203" data-name="Tracé 203" d="M667.165,407.51a.045.045,0,0,0-.09,0v.661a.045.045,0,0,0,.09,0Z" transform="translate(-592.912 -362.165)" fill="#3d3232"/>
    <path id="Tracé_204" data-name="Tracé 204" d="M666.091,413.276V412.9a.2.2,0,0,0-.4,0v.378a.2.2,0,0,0,.4,0m-.09-.189v.189a.109.109,0,0,1-.217,0V412.9a.109.109,0,0,1,.217,0Z" transform="translate(-591.684 -366.82)" fill="#3d3232"/>
    <path id="Tracé_205" data-name="Tracé 205" d="M667.165,418.151a.045.045,0,0,0-.09,0v.661a.045.045,0,0,0,.09,0Z" transform="translate(-592.912 -371.623)" fill="#3d3232"/>
    <path id="Tracé_206" data-name="Tracé 206" d="M666.091,423.916v-.378a.2.2,0,0,0-.4,0v.378a.2.2,0,0,0,.4,0m-.09-.189v.189a.109.109,0,0,1-.217,0v-.378a.109.109,0,0,1,.217,0Z" transform="translate(-591.684 -376.277)" fill="#3d3232"/>
    <path id="Tracé_207" data-name="Tracé 207" d="M667.165,428.791a.045.045,0,0,0-.09,0v.661a.045.045,0,0,0,.09,0Z" transform="translate(-592.912 -381.08)" fill="#3d3232"/>
    <path id="Tracé_208" data-name="Tracé 208" d="M666.091,434.556v-.378a.2.2,0,0,0-.4,0v.378a.2.2,0,0,0,.4,0m-.09-.189v.189a.109.109,0,0,1-.217,0v-.378a.109.109,0,0,1,.217,0Z" transform="translate(-591.684 -385.734)" fill="#3d3232"/>
    <path id="Tracé_209" data-name="Tracé 209" d="M667.164,439.43a.045.045,0,0,0-.09,0v.661a.045.045,0,0,0,.09,0Z" transform="translate(-592.911 -390.537)" fill="#3d3232"/>
    <path id="Tracé_210" data-name="Tracé 210" d="M666.091,445.2v-.378a.2.2,0,0,0-.4,0v.378a.2.2,0,0,0,.4,0m-.09-.189v.189a.109.109,0,0,1-.217,0v-.378a.109.109,0,0,1,.217,0Z" transform="translate(-591.684 -395.191)" fill="#3d3232"/>
    <path id="Tracé_211" data-name="Tracé 211" d="M667.164,450.071a.045.045,0,0,0-.09,0v.661a.045.045,0,0,0,.09,0Z" transform="translate(-592.911 -399.995)" fill="#3d3232"/>
    <path id="Tracé_212" data-name="Tracé 212" d="M666.091,455.836v-.378a.2.2,0,0,0-.4,0v.378a.2.2,0,0,0,.4,0m-.09-.189v.189a.109.109,0,0,1-.217,0v-.378a.109.109,0,0,1,.217,0Z" transform="translate(-591.684 -404.648)" fill="#3d3232"/>
    <path id="Tracé_213" data-name="Tracé 213" d="M667.164,460.711a.045.045,0,0,0-.09,0v.661a.045.045,0,0,0,.09,0Z" transform="translate(-592.911 -409.452)" fill="#3d3232"/>
    <path id="Tracé_214" data-name="Tracé 214" d="M666.091,466.476V466.1a.2.2,0,0,0-.4,0v.378a.2.2,0,0,0,.4,0m-.09-.189v.189a.109.109,0,0,1-.217,0V466.1a.109.109,0,0,1,.217,0Z" transform="translate(-591.684 -414.106)" fill="#3d3232"/>
    <path id="Tracé_215" data-name="Tracé 215" d="M667.164,471.351a.045.045,0,0,0-.09,0v.661a.045.045,0,0,0,.09,0Z" transform="translate(-592.911 -418.909)" fill="#3d3232"/>
    <path id="Tracé_216" data-name="Tracé 216" d="M666.091,477.116v-.378a.2.2,0,0,0-.4,0v.378a.2.2,0,0,0,.4,0m-.09-.189v.189a.109.109,0,0,1-.217,0v-.378a.109.109,0,0,1,.217,0Z" transform="translate(-591.684 -423.563)" fill="#3d3232"/>
    <path id="Tracé_217" data-name="Tracé 217" d="M667.164,481.99a.045.045,0,0,0-.09,0v.661a.045.045,0,0,0,.09,0Z" transform="translate(-592.911 -428.365)" fill="#3d3232"/>
    <path id="Tracé_218" data-name="Tracé 218" d="M666.091,487.756v-.378a.2.2,0,0,0-.4,0v.378a.2.2,0,0,0,.4,0m-.09-.189v.189a.109.109,0,0,1-.217,0v-.378a.109.109,0,0,1,.217,0Z" transform="translate(-591.684 -433.02)" fill="#3d3232"/>
    <path id="Tracé_219" data-name="Tracé 219" d="M667.164,492.631a.045.045,0,0,0-.09,0v.661a.045.045,0,0,0,.09,0Z" transform="translate(-592.911 -437.823)" fill="#3d3232"/>
    <path id="Tracé_220" data-name="Tracé 220" d="M666.091,498.4v-.378a.2.2,0,0,0-.4,0v.378a.2.2,0,0,0,.4,0m-.09-.189v.189a.109.109,0,0,1-.217,0v-.378a.109.109,0,0,1,.217,0Z" transform="translate(-591.684 -442.477)" fill="#3d3232"/>
    <path id="Tracé_221" data-name="Tracé 221" d="M596.573,502.708a.572.572,0,1,0-1.075.271H586.53v-.748a.095.095,0,1,0-.189,0v.748h-8.968a.572.572,0,1,0-.78.229c1.376,1.238,5.46,1.946,9.842,1.946s8.466-.708,9.842-1.946a.572.572,0,0,0,.3-.5m-.955,0a.383.383,0,1,1,.653.271h-.54a.382.382,0,0,1-.113-.271m-18.748-.383a.382.382,0,0,1,.27.654H576.6a.382.382,0,0,1,.27-.654" transform="translate(-512.228 -446.31)" fill="#3d3232"/>
    <path id="Tracé_222" data-name="Tracé 222" d="M659.523,306.192a.2.2,0,0,0-.257.106l-.071.175-.071.175a.2.2,0,0,0,.368.149l.071-.175.071-.175a.2.2,0,0,0-.11-.255m-.115.572a.109.109,0,0,1-.2-.082l.071-.175.071-.175a.109.109,0,0,1,.2.082l-.071.175Z" transform="translate(-585.832 -272.137)" fill="#3d3232"/>
    <path id="Tracé_223" data-name="Tracé 223" d="M662.1,302.1a.045.045,0,0,1-.083-.034l.249-.612a.045.045,0,0,1,.083.034Z" transform="translate(-588.41 -267.917)" fill="#3d3232"/>
    <path id="Tracé_224" data-name="Tracé 224" d="M581.991,499.25a.045.045,0,0,1-.083-.034l.249-.612a.045.045,0,0,1,.083.034Z" transform="translate(-517.21 -443.147)" fill="#3d3232"/>
    <path id="Tracé_225" data-name="Tracé 225" d="M583.422,493.482a.2.2,0,0,0-.257.106l-.071.175-.071.175a.2.2,0,0,0,.368.149l.071-.175.071-.175a.2.2,0,0,0-.11-.255m-.115.572a.109.109,0,0,1-.2-.082l.071-.175.071-.175a.109.109,0,0,1,.2.082l-.071.175Z" transform="translate(-518.191 -438.605)" fill="#3d3232"/>
    <path id="Tracé_226" data-name="Tracé 226" d="M586,489.392a.045.045,0,0,1-.083-.034l.249-.612a.045.045,0,0,1,.083.034Z" transform="translate(-520.77 -434.385)" fill="#3d3232"/>
    <path id="Tracé_227" data-name="Tracé 227" d="M587.427,483.624a.2.2,0,0,0-.257.106l-.071.175-.071.175a.2.2,0,0,0,.368.149l.071-.175.071-.175a.2.2,0,0,0-.11-.255m-.115.572a.109.109,0,0,1-.2-.082l.071-.175.071-.175a.109.109,0,0,1,.2.082l-.071.175Z" transform="translate(-521.751 -429.844)" fill="#3d3232"/>
    <path id="Tracé_228" data-name="Tracé 228" d="M590,479.535a.045.045,0,0,1-.083-.034l.249-.612a.045.045,0,0,1,.083.034Z" transform="translate(-524.331 -425.624)" fill="#3d3232"/>
    <path id="Tracé_229" data-name="Tracé 229" d="M591.433,473.767a.2.2,0,0,0-.257.106l-.071.175-.071.175a.2.2,0,0,0,.368.149l.071-.175.071-.175a.2.2,0,0,0-.11-.255m-.115.572a.109.109,0,0,1-.2-.082l.071-.175.071-.175a.109.109,0,0,1,.2.082l-.071.175Z" transform="translate(-525.312 -421.082)" fill="#3d3232"/>
    <path id="Tracé_230" data-name="Tracé 230" d="M594.007,469.678a.045.045,0,0,1-.083-.034l.249-.612a.045.045,0,0,1,.083.034Z" transform="translate(-527.89 -416.862)" fill="#3d3232"/>
    <path id="Tracé_231" data-name="Tracé 231" d="M595.438,463.91a.2.2,0,0,0-.257.106l-.071.175-.071.175a.2.2,0,0,0,.368.149l.071-.175.071-.175a.2.2,0,0,0-.11-.255m-.115.572a.109.109,0,0,1-.2-.082l.071-.175.071-.175a.109.109,0,0,1,.2.082l-.071.175Z" transform="translate(-528.872 -412.321)" fill="#3d3232"/>
    <path id="Tracé_232" data-name="Tracé 232" d="M598.012,459.82a.045.045,0,0,1-.083-.034l.249-.612a.045.045,0,0,1,.083.034Z" transform="translate(-531.45 -408.1)" fill="#3d3232"/>
    <path id="Tracé_233" data-name="Tracé 233" d="M599.443,454.052a.2.2,0,0,0-.257.106l-.071.175-.071.175a.2.2,0,0,0,.368.149l.071-.175.071-.175a.2.2,0,0,0-.11-.255m-.115.572a.109.109,0,0,1-.2-.082l.071-.175.071-.175a.109.109,0,0,1,.2.082l-.071.175Z" transform="translate(-532.431 -403.559)" fill="#3d3232"/>
    <path id="Tracé_234" data-name="Tracé 234" d="M602.018,449.963a.045.045,0,0,1-.083-.034l.249-.612a.045.045,0,0,1,.083.034Z" transform="translate(-535.011 -399.339)" fill="#3d3232"/>
    <path id="Tracé_235" data-name="Tracé 235" d="M603.449,444.2a.2.2,0,0,0-.257.106l-.071.175-.071.175a.2.2,0,0,0,.368.149l.071-.175.071-.175a.2.2,0,0,0-.11-.255m-.115.572a.109.109,0,0,1-.2-.082l.071-.175.071-.175a.109.109,0,0,1,.2.082l-.071.175Z" transform="translate(-535.992 -394.798)" fill="#3d3232"/>
    <path id="Tracé_236" data-name="Tracé 236" d="M606.023,440.105a.045.045,0,0,1-.083-.034l.249-.612a.045.045,0,0,1,.083.034Z" transform="translate(-538.571 -390.577)" fill="#3d3232"/>
    <path id="Tracé_237" data-name="Tracé 237" d="M607.454,434.338a.2.2,0,0,0-.257.106l-.071.175-.071.175a.2.2,0,0,0,.368.149l.071-.175.071-.175a.2.2,0,0,0-.111-.255m-.115.572a.109.109,0,0,1-.2-.082l.071-.175.071-.175a.109.109,0,0,1,.2.082l-.071.175Z" transform="translate(-539.552 -386.037)" fill="#3d3232"/>
    <path id="Tracé_238" data-name="Tracé 238" d="M610.028,430.248a.045.045,0,0,1-.083-.034l.249-.612a.045.045,0,0,1,.083.034Z" transform="translate(-542.13 -381.816)" fill="#3d3232"/>
    <path id="Tracé_239" data-name="Tracé 239" d="M611.459,424.48a.2.2,0,0,0-.257.106l-.071.175-.071.175a.2.2,0,0,0,.368.149l.071-.175.071-.175a.2.2,0,0,0-.111-.255m-.115.572a.109.109,0,0,1-.2-.082l.071-.175.071-.175a.109.109,0,0,1,.2.082l-.071.175Z" transform="translate(-543.111 -377.275)" fill="#3d3232"/>
    <path id="Tracé_240" data-name="Tracé 240" d="M614.034,420.391a.045.045,0,0,1-.083-.034l.249-.612a.045.045,0,0,1,.083.034Z" transform="translate(-545.691 -373.055)" fill="#3d3232"/>
    <path id="Tracé_241" data-name="Tracé 241" d="M615.465,414.623a.2.2,0,0,0-.257.106l-.071.175-.071.175a.2.2,0,0,0,.368.149l.071-.175.071-.175a.2.2,0,0,0-.11-.255m-.115.572a.109.109,0,0,1-.2-.082l.071-.175.071-.175a.109.109,0,0,1,.2.082l-.071.175Z" transform="translate(-546.672 -368.514)" fill="#3d3232"/>
    <path id="Tracé_242" data-name="Tracé 242" d="M618.039,410.533a.045.045,0,0,1-.083-.034l.249-.612a.045.045,0,0,1,.083.034Z" transform="translate(-549.251 -364.293)" fill="#3d3232"/>
    <path id="Tracé_243" data-name="Tracé 243" d="M619.47,404.765a.2.2,0,0,0-.257.106l-.071.175-.071.175a.2.2,0,0,0,.368.149l.071-.175.071-.175a.2.2,0,0,0-.111-.255m-.115.572a.109.109,0,0,1-.2-.082l.071-.175.071-.175a.109.109,0,0,1,.2.082l-.071.175Z" transform="translate(-550.232 -359.752)" fill="#3d3232"/>
    <path id="Tracé_244" data-name="Tracé 244" d="M622.044,400.676a.045.045,0,0,1-.083-.034l.249-.612a.045.045,0,0,1,.083.034Z" transform="translate(-552.81 -355.532)" fill="#3d3232"/>
    <path id="Tracé_245" data-name="Tracé 245" d="M623.475,394.908a.2.2,0,0,0-.257.106l-.071.175-.071.175a.2.2,0,0,0,.368.149l.071-.175.071-.175a.2.2,0,0,0-.111-.255m-.115.572a.109.109,0,0,1-.2-.082l.071-.175.071-.175a.109.109,0,0,1,.2.082l-.071.175Z" transform="translate(-553.791 -350.99)" fill="#3d3232"/>
    <path id="Tracé_246" data-name="Tracé 246" d="M626.05,390.819a.045.045,0,0,1-.083-.034l.249-.612a.045.045,0,0,1,.083.034Z" transform="translate(-556.371 -346.77)" fill="#3d3232"/>
    <path id="Tracé_247" data-name="Tracé 247" d="M627.481,385.051a.2.2,0,0,0-.257.106l-.071.175-.071.175a.2.2,0,0,0,.368.149l.071-.175.071-.175a.2.2,0,0,0-.111-.255m-.115.572a.109.109,0,0,1-.2-.082l.071-.175.071-.175a.109.109,0,0,1,.2.082l-.071.175Z" transform="translate(-557.352 -342.229)" fill="#3d3232"/>
    <path id="Tracé_248" data-name="Tracé 248" d="M630.055,380.961a.045.045,0,0,1-.083-.034l.249-.612a.045.045,0,0,1,.083.034Z" transform="translate(-559.931 -338.009)" fill="#3d3232"/>
    <path id="Tracé_249" data-name="Tracé 249" d="M631.486,375.193a.2.2,0,0,0-.257.106l-.071.175-.071.175a.2.2,0,0,0,.368.149l.071-.175.071-.175a.2.2,0,0,0-.11-.255m-.115.572a.109.109,0,0,1-.2-.082l.071-.175.071-.175a.109.109,0,0,1,.2.082l-.071.175Z" transform="translate(-560.912 -333.467)" fill="#3d3232"/>
    <path id="Tracé_250" data-name="Tracé 250" d="M634.06,371.1a.045.045,0,0,1-.083-.034l.249-.612a.045.045,0,0,1,.083.034Z" transform="translate(-563.49 -329.248)" fill="#3d3232"/>
    <path id="Tracé_251" data-name="Tracé 251" d="M635.491,365.336a.2.2,0,0,0-.257.106l-.071.175-.071.175a.2.2,0,0,0,.368.149l.071-.175.071-.175a.2.2,0,0,0-.111-.255m-.115.572a.109.109,0,0,1-.2-.082l.071-.175.071-.175a.109.109,0,0,1,.2.082l-.071.175Z" transform="translate(-564.471 -324.706)" fill="#3d3232"/>
    <path id="Tracé_252" data-name="Tracé 252" d="M638.066,361.246a.045.045,0,0,1-.083-.034l.249-.612a.045.045,0,0,1,.083.034Z" transform="translate(-567.051 -320.486)" fill="#3d3232"/>
    <path id="Tracé_253" data-name="Tracé 253" d="M639.5,355.479a.2.2,0,0,0-.257.106l-.071.175-.071.175a.2.2,0,0,0,.368.149l.071-.175.071-.175a.2.2,0,0,0-.111-.255m-.115.572a.109.109,0,0,1-.2-.082l.071-.175.071-.175a.109.109,0,0,1,.2.082l-.071.175Z" transform="translate(-568.032 -315.945)" fill="#3d3232"/>
    <path id="Tracé_254" data-name="Tracé 254" d="M642.071,351.389a.045.045,0,0,1-.083-.034l.249-.612a.045.045,0,0,1,.083.034Z" transform="translate(-570.611 -311.724)" fill="#3d3232"/>
    <path id="Tracé_255" data-name="Tracé 255" d="M643.5,345.621a.2.2,0,0,0-.257.106l-.071.175-.071.175a.2.2,0,0,0,.368.149l.071-.175.071-.175a.2.2,0,0,0-.111-.255m-.115.572a.109.109,0,0,1-.2-.082l.071-.175.071-.175a.109.109,0,0,1,.2.082l-.071.175Z" transform="translate(-571.592 -307.183)" fill="#3d3232"/>
    <path id="Tracé_256" data-name="Tracé 256" d="M646.076,341.532a.045.045,0,0,1-.083-.034l.249-.612a.045.045,0,0,1,.083.034Z" transform="translate(-574.171 -302.963)" fill="#3d3232"/>
    <path id="Tracé_257" data-name="Tracé 257" d="M647.507,335.764a.2.2,0,0,0-.257.106l-.071.175-.071.175a.2.2,0,0,0,.368.149l.071-.175.071-.175a.2.2,0,0,0-.11-.255m-.115.572a.109.109,0,0,1-.2-.082l.071-.175.071-.175a.109.109,0,0,1,.2.082l-.071.175Z" transform="translate(-575.152 -298.422)" fill="#3d3232"/>
    <path id="Tracé_258" data-name="Tracé 258" d="M650.081,331.674a.045.045,0,0,1-.083-.034l.249-.612a.045.045,0,0,1,.083.034Z" transform="translate(-577.73 -294.201)" fill="#3d3232"/>
    <path id="Tracé_259" data-name="Tracé 259" d="M651.512,325.907a.2.2,0,0,0-.257.106l-.071.175-.071.175a.2.2,0,0,0,.368.149l.071-.175.071-.175a.2.2,0,0,0-.111-.255m-.115.572a.109.109,0,0,1-.2-.082l.071-.175.071-.175a.109.109,0,0,1,.2.082l-.071.175Z" transform="translate(-578.711 -289.661)" fill="#3d3232"/>
    <path id="Tracé_260" data-name="Tracé 260" d="M654.087,321.817a.045.045,0,0,1-.083-.034l.249-.612a.045.045,0,0,1,.083.034Z" transform="translate(-581.291 -285.44)" fill="#3d3232"/>
    <path id="Tracé_261" data-name="Tracé 261" d="M655.518,316.049a.2.2,0,0,0-.257.106l-.071.175-.071.175a.2.2,0,0,0,.368.149l.071-.175.071-.175a.2.2,0,0,0-.111-.255m-.115.572a.109.109,0,0,1-.2-.082l.071-.175.071-.175a.109.109,0,0,1,.2.082l-.071.175Z" transform="translate(-582.272 -280.899)" fill="#3d3232"/>
    <path id="Tracé_262" data-name="Tracé 262" d="M658.092,311.96a.045.045,0,0,1-.083-.034l.249-.612a.045.045,0,0,1,.083.034Z" transform="translate(-584.851 -276.679)" fill="#3d3232"/>
    <path id="Tracé_263" data-name="Tracé 263" d="M747.632,493.938l-.071-.175-.071-.175a.2.2,0,0,0-.368.149l.071.175.071.175a.2.2,0,0,0,.368-.149m-.154-.141.071.175a.109.109,0,0,1-.2.082l-.071-.175-.071-.175a.109.109,0,0,1,.2-.082Z" transform="translate(-664.047 -438.605)" fill="#3d3232"/>
    <path id="Tracé_264" data-name="Tracé 264" d="M750.1,498.6a.045.045,0,0,0-.083.034l.249.612a.045.045,0,0,0,.083-.034Z" transform="translate(-666.626 -443.147)" fill="#3d3232"/>
    <path id="Tracé_265" data-name="Tracé 265" d="M669.989,301.457a.045.045,0,0,0-.083.034l.249.612a.045.045,0,0,0,.083-.034Z" transform="translate(-595.425 -267.918)" fill="#3d3232"/>
    <path id="Tracé_266" data-name="Tracé 266" d="M671.531,306.648l-.071-.175-.071-.175a.2.2,0,0,0-.368.149l.071.175.071.175a.2.2,0,0,0,.368-.149m-.154-.141.071.175a.109.109,0,0,1-.2.082l-.071-.175-.071-.175a.109.109,0,0,1,.2-.082Z" transform="translate(-596.407 -272.137)" fill="#3d3232"/>
    <path id="Tracé_267" data-name="Tracé 267" d="M673.995,311.314a.045.045,0,0,0-.083.034l.249.612a.045.045,0,0,0,.083-.034Z" transform="translate(-598.986 -276.679)" fill="#3d3232"/>
    <path id="Tracé_268" data-name="Tracé 268" d="M675.536,316.505l-.071-.175-.071-.175a.2.2,0,0,0-.368.149l.071.175.071.175a.2.2,0,0,0,.368-.149m-.154-.141.071.175a.109.109,0,0,1-.2.082l-.071-.175-.071-.175a.109.109,0,0,1,.2-.082Z" transform="translate(-599.967 -280.899)" fill="#3d3232"/>
    <path id="Tracé_269" data-name="Tracé 269" d="M678,321.172a.045.045,0,0,0-.083.034l.249.612a.045.045,0,0,0,.083-.034Z" transform="translate(-602.545 -285.441)" fill="#3d3232"/>
    <path id="Tracé_270" data-name="Tracé 270" d="M679.541,326.364l-.071-.175-.071-.175a.2.2,0,0,0-.368.149l.071.175.071.175a.2.2,0,0,0,.368-.149m-.154-.141.071.175a.109.109,0,0,1-.2.082l-.071-.175-.071-.175a.109.109,0,0,1,.2-.082Z" transform="translate(-603.526 -289.661)" fill="#3d3232"/>
    <path id="Tracé_271" data-name="Tracé 271" d="M682,331.029a.045.045,0,0,0-.083.034l.249.612a.045.045,0,0,0,.083-.034Z" transform="translate(-606.105 -294.202)" fill="#3d3232"/>
    <path id="Tracé_272" data-name="Tracé 272" d="M683.547,336.22l-.071-.175-.071-.175a.2.2,0,0,0-.368.149l.071.175.071.175a.2.2,0,0,0,.368-.149m-.154-.141.071.175a.109.109,0,0,1-.2.082l-.071-.175-.071-.175a.109.109,0,0,1,.2-.082Z" transform="translate(-607.087 -298.422)" fill="#3d3232"/>
    <path id="Tracé_273" data-name="Tracé 273" d="M686.011,340.886a.045.045,0,0,0-.083.034l.249.612a.045.045,0,0,0,.083-.034Z" transform="translate(-609.666 -302.963)" fill="#3d3232"/>
    <path id="Tracé_274" data-name="Tracé 274" d="M687.552,346.077l-.071-.175-.071-.175a.2.2,0,0,0-.368.149l.071.175.071.175a.2.2,0,0,0,.368-.149m-.154-.141.071.175a.109.109,0,0,1-.2.082l-.071-.175-.071-.175a.109.109,0,0,1,.2-.082Z" transform="translate(-610.647 -307.183)" fill="#3d3232"/>
    <path id="Tracé_275" data-name="Tracé 275" d="M690.016,350.744a.045.045,0,0,0-.083.034l.249.612a.045.045,0,0,0,.083-.034Z" transform="translate(-613.225 -311.725)" fill="#3d3232"/>
    <path id="Tracé_276" data-name="Tracé 276" d="M691.557,355.935l-.071-.175-.071-.175a.2.2,0,0,0-.368.149l.071.175.071.175a.2.2,0,0,0,.368-.149m-.154-.141.071.175a.109.109,0,0,1-.2.082l-.071-.175-.071-.175a.109.109,0,0,1,.2-.082Z" transform="translate(-614.206 -315.945)" fill="#3d3232"/>
    <path id="Tracé_277" data-name="Tracé 277" d="M694.021,360.6a.045.045,0,0,0-.083.034l.249.612a.045.045,0,0,0,.083-.034Z" transform="translate(-616.785 -320.486)" fill="#3d3232"/>
    <path id="Tracé_278" data-name="Tracé 278" d="M695.563,365.792l-.071-.175-.071-.175a.2.2,0,0,0-.368.149l.071.175.071.175a.2.2,0,0,0,.368-.149m-.154-.141.071.175a.109.109,0,0,1-.2.082l-.071-.175-.071-.175a.109.109,0,0,1,.2-.082Z" transform="translate(-617.767 -324.706)" fill="#3d3232"/>
    <path id="Tracé_279" data-name="Tracé 279" d="M698.027,370.458a.045.045,0,0,0-.083.034l.249.612a.045.045,0,0,0,.083-.034Z" transform="translate(-620.346 -329.248)" fill="#3d3232"/>
    <path id="Tracé_280" data-name="Tracé 280" d="M699.568,375.65l-.071-.175-.071-.175a.2.2,0,0,0-.368.149l.071.175.071.175a.2.2,0,0,0,.368-.149m-.154-.141.071.175a.109.109,0,0,1-.2.082l-.071-.175-.071-.175a.109.109,0,0,1,.2-.082Z" transform="translate(-621.327 -333.468)" fill="#3d3232"/>
    <path id="Tracé_281" data-name="Tracé 281" d="M702.032,380.316a.045.045,0,0,0-.083.034l.249.612a.045.045,0,0,0,.083-.034Z" transform="translate(-623.906 -338.01)" fill="#3d3232"/>
    <path id="Tracé_282" data-name="Tracé 282" d="M703.573,385.507l-.071-.175-.071-.175a.2.2,0,0,0-.368.149l.071.175.071.175a.2.2,0,0,0,.368-.149m-.154-.141.071.175a.109.109,0,0,1-.2.082l-.071-.175-.071-.175a.109.109,0,0,1,.2-.082Z" transform="translate(-624.887 -342.229)" fill="#3d3232"/>
    <path id="Tracé_283" data-name="Tracé 283" d="M706.037,390.173a.045.045,0,0,0-.083.034l.249.612a.045.045,0,0,0,.083-.034Z" transform="translate(-627.465 -346.771)" fill="#3d3232"/>
    <path id="Tracé_284" data-name="Tracé 284" d="M707.579,395.364l-.071-.175-.071-.175a.2.2,0,0,0-.368.149l.071.175.071.175a.2.2,0,0,0,.368-.149m-.154-.141.071.175a.109.109,0,0,1-.2.082l-.071-.175-.071-.175a.109.109,0,0,1,.2-.082Z" transform="translate(-628.447 -350.99)" fill="#3d3232"/>
    <path id="Tracé_285" data-name="Tracé 285" d="M710.043,400.03a.045.045,0,0,0-.083.034l.249.612a.045.045,0,0,0,.083-.034Z" transform="translate(-631.026 -355.532)" fill="#3d3232"/>
    <path id="Tracé_286" data-name="Tracé 286" d="M711.584,405.222l-.071-.175-.071-.175a.2.2,0,0,0-.368.149l.071.175.071.175a.2.2,0,0,0,.368-.149m-.154-.141.071.175a.109.109,0,0,1-.2.082l-.071-.175-.071-.175a.109.109,0,0,1,.2-.082Z" transform="translate(-632.007 -359.752)" fill="#3d3232"/>
    <path id="Tracé_287" data-name="Tracé 287" d="M714.048,409.888a.045.045,0,0,0-.083.034l.249.612a.045.045,0,0,0,.083-.034Z" transform="translate(-634.586 -364.294)" fill="#3d3232"/>
    <path id="Tracé_288" data-name="Tracé 288" d="M715.589,415.079l-.071-.175-.071-.175a.2.2,0,0,0-.368.149l.071.175.071.175a.2.2,0,0,0,.368-.149m-.154-.141.071.175a.109.109,0,0,1-.2.082l-.071-.175-.071-.175a.109.109,0,0,1,.2-.082Z" transform="translate(-635.567 -368.514)" fill="#3d3232"/>
    <path id="Tracé_289" data-name="Tracé 289" d="M718.053,419.745a.045.045,0,0,0-.083.034l.249.612a.045.045,0,0,0,.083-.034Z" transform="translate(-638.145 -373.055)" fill="#3d3232"/>
    <path id="Tracé_290" data-name="Tracé 290" d="M719.594,424.936l-.071-.175-.071-.175a.2.2,0,0,0-.368.149l.071.175.071.175a.2.2,0,0,0,.368-.149m-.154-.141.071.175a.109.109,0,0,1-.2.082l-.071-.175-.071-.175a.109.109,0,0,1,.2-.082Z" transform="translate(-639.126 -377.275)" fill="#3d3232"/>
    <path id="Tracé_291" data-name="Tracé 291" d="M722.059,429.6a.045.045,0,0,0-.083.034l.249.612a.045.045,0,0,0,.083-.034Z" transform="translate(-641.706 -381.816)" fill="#3d3232"/>
    <path id="Tracé_292" data-name="Tracé 292" d="M723.6,434.794l-.071-.175-.071-.175a.2.2,0,0,0-.368.149l.071.175.071.175a.2.2,0,0,0,.368-.149m-.154-.141.071.175a.109.109,0,0,1-.2.082l-.071-.175-.071-.175a.109.109,0,0,1,.2-.082Z" transform="translate(-642.687 -386.037)" fill="#3d3232"/>
    <path id="Tracé_293" data-name="Tracé 293" d="M726.064,439.46a.045.045,0,0,0-.083.034l.249.612a.045.045,0,0,0,.083-.034Z" transform="translate(-645.266 -390.578)" fill="#3d3232"/>
    <path id="Tracé_294" data-name="Tracé 294" d="M727.605,444.651l-.071-.175-.071-.175a.2.2,0,0,0-.368.149l.071.175.071.175a.2.2,0,0,0,.368-.149m-.154-.141.071.175a.109.109,0,0,1-.2.082l-.071-.175-.071-.175a.109.109,0,0,1,.2-.082Z" transform="translate(-646.247 -394.798)" fill="#3d3232"/>
    <path id="Tracé_295" data-name="Tracé 295" d="M730.069,449.317a.045.045,0,0,0-.083.034l.249.612a.045.045,0,0,0,.083-.034Z" transform="translate(-648.826 -399.339)" fill="#3d3232"/>
    <path id="Tracé_296" data-name="Tracé 296" d="M731.61,454.509l-.071-.175-.071-.175a.2.2,0,0,0-.368.149l.071.175.071.175a.2.2,0,0,0,.368-.149m-.154-.141.071.175a.109.109,0,0,1-.2.082l-.071-.175-.071-.175a.109.109,0,0,1,.2-.082Z" transform="translate(-649.807 -403.56)" fill="#3d3232"/>
    <path id="Tracé_297" data-name="Tracé 297" d="M734.075,459.175a.045.045,0,0,0-.083.034l.249.612a.045.045,0,0,0,.083-.034Z" transform="translate(-652.386 -408.101)" fill="#3d3232"/>
    <path id="Tracé_298" data-name="Tracé 298" d="M735.616,464.366l-.071-.175-.071-.175a.2.2,0,0,0-.368.149l.071.175.071.175a.2.2,0,0,0,.368-.149m-.154-.141.071.175a.109.109,0,0,1-.2.082l-.071-.175-.071-.175a.109.109,0,0,1,.2-.082Z" transform="translate(-653.367 -412.321)" fill="#3d3232"/>
    <path id="Tracé_299" data-name="Tracé 299" d="M738.08,469.032a.045.045,0,0,0-.083.034l.249.612a.045.045,0,0,0,.083-.034Z" transform="translate(-655.946 -416.862)" fill="#3d3232"/>
    <path id="Tracé_300" data-name="Tracé 300" d="M739.621,474.223l-.071-.175-.071-.175a.2.2,0,0,0-.368.149l.071.175.071.175a.2.2,0,0,0,.368-.149m-.154-.141.071.175a.109.109,0,0,1-.2.082l-.071-.175-.071-.175a.109.109,0,0,1,.2-.082Z" transform="translate(-656.927 -421.082)" fill="#3d3232"/>
    <path id="Tracé_301" data-name="Tracé 301" d="M742.085,478.889a.045.045,0,0,0-.083.034l.249.612a.045.045,0,0,0,.083-.034Z" transform="translate(-659.505 -425.624)" fill="#3d3232"/>
    <path id="Tracé_302" data-name="Tracé 302" d="M743.626,484.081l-.071-.175-.071-.175a.2.2,0,0,0-.368.149l.071.175.071.175a.2.2,0,0,0,.368-.149m-.154-.141.071.175a.109.109,0,0,1-.2.082l-.071-.175-.071-.175a.109.109,0,0,1,.2-.082Z" transform="translate(-660.487 -429.844)" fill="#3d3232"/>
    <path id="Tracé_303" data-name="Tracé 303" d="M746.091,488.747a.045.045,0,0,0-.083.034l.249.612a.045.045,0,0,0,.083-.034Z" transform="translate(-663.066 -434.386)" fill="#3d3232"/>
    <path id="Tracé_304" data-name="Tracé 304" d="M664.835,265.013a.331.331,0,0,0-.331.331v3.976a.331.331,0,0,0,.661,0v-3.976a.331.331,0,0,0-.331-.331" transform="translate(-590.627 -235.55)" fill="#3d3232"/>
    <path id="Tracé_305" data-name="Tracé 305" d="M359.518,188.2H357.3a2.268,2.268,0,0,0-2.268-2.268h-4.4c-1.38-.038-2.048-.628-2.112-1.243a1.086,1.086,0,0,1,.73-1.11h0a3.661,3.661,0,0,0,2.5-3.222.851.851,0,0,0-.485-.871c-2.1-.767-2.484-1.435-2.549-2.089a3.094,3.094,0,0,0,1.265-.749c.484-.524-.282-1.063-.614-1.642-.531-.926-.52-2.185-.583-4.429v-8.8a20.474,20.474,0,0,1,.394-4.709,5.077,5.077,0,0,1,.748-1.717c.42-.582.063-1.022-.458-1.242a4.437,4.437,0,0,0-.53-.19h0c-.378-.113-.442-.239-.463-.346-.025-.13.057-.281.36-.357h0l.016,0,.018,0c1.4-.248,1.917-.977,1.917-1.449s-.52-1.2-1.917-1.449a.755.755,0,0,1-.626-.62.777.777,0,0,1,.408-.82h0a3.384,3.384,0,0,0,1.689-2.922c.228-2.649,1.327-3.79.849-3.79a2.209,2.209,0,0,1-1.975-.4,3.75,3.75,0,0,0-.805-.5,1.728,1.728,0,0,0,.7-2.4.848.848,0,0,0-.345-.23,2.307,2.307,0,0,0,.694-2.672c-.567-2.2-1.329-4.457-2.446-4.457s-1.88,2.256-2.446,4.457a2.306,2.306,0,0,0,.694,2.672.849.849,0,0,0-.345.23,1.728,1.728,0,0,0,.7,2.4,3.749,3.749,0,0,0-.805.5,2.209,2.209,0,0,1-1.975.4c-.477,0,.621,1.141.85,3.79a3.384,3.384,0,0,0,1.689,2.922h0a.778.778,0,0,1,.408.82.755.755,0,0,1-.627.62c-1.4.248-1.917.977-1.917,1.449s.52,1.2,1.917,1.449l.018,0,.016,0h0c.3.076.384.227.36.357-.021.107-.085.233-.463.346h0a4.439,4.439,0,0,0-.53.19c-.521.22-.878.661-.458,1.242a5.08,5.08,0,0,1,.748,1.717,20.483,20.483,0,0,1,.394,4.709v8.8c-.064,2.244-.052,3.5-.583,4.429-.332.579-1.1,1.118-.614,1.642a3.1,3.1,0,0,0,1.265.749c-.065.655-.45,1.323-2.549,2.089a.851.851,0,0,0-.485.871,3.66,3.66,0,0,0,2.5,3.222h0a1.086,1.086,0,0,1,.73,1.11c-.065.614-.732,1.205-2.112,1.243h-4.4a2.268,2.268,0,0,0-2.268,2.268H334.5a1.606,1.606,0,0,0-1.606,1.606v1.134a.472.472,0,0,0,.472.472h27.287a.473.473,0,0,0,.473-.472v-1.134a1.606,1.606,0,0,0-1.606-1.606" transform="translate(-295.882 -116.886)" fill="#3d3232"/>
    <path id="Tracé_306" data-name="Tracé 306" d="M472.372,188.2h-2.219a2.268,2.268,0,0,0-2.268-2.268h-4.4c-1.38-.038-2.048-.628-2.112-1.243a1.086,1.086,0,0,1,.73-1.11h0a3.66,3.66,0,0,0,2.5-3.222.851.851,0,0,0-.485-.871c-2.1-.767-2.484-1.435-2.549-2.089a3.094,3.094,0,0,0,1.265-.749c.484-.524-.282-1.063-.614-1.642-.531-.926-.52-2.185-.583-4.429v-8.8a20.474,20.474,0,0,1,.394-4.709,5.077,5.077,0,0,1,.748-1.717c.42-.582.063-1.022-.458-1.242a4.437,4.437,0,0,0-.53-.19h0c-.378-.113-.442-.239-.463-.346-.025-.13.057-.281.36-.357h0l.016,0,.018,0c1.4-.248,1.917-.977,1.917-1.449s-.52-1.2-1.917-1.449a.755.755,0,0,1-.626-.62.777.777,0,0,1,.408-.82h0a3.384,3.384,0,0,0,1.689-2.922c.228-2.649,1.327-3.79.85-3.79a2.209,2.209,0,0,1-1.975-.4,3.752,3.752,0,0,0-.805-.5,1.728,1.728,0,0,0,.7-2.4.847.847,0,0,0-.345-.23,2.307,2.307,0,0,0,.694-2.672c-.567-2.2-1.329-4.457-2.446-4.457v59.907h13.644a.472.472,0,0,0,.472-.472v-1.134a1.606,1.606,0,0,0-1.606-1.606" transform="translate(-408.736 -116.886)" fill="#3d3232"/>
  </g>
</svg>
